<svg xmlns="http://www.w3.org/2000/svg" viewBox="0 0 1600 900" width="1600" height="900" role="img" aria-label="Oraș în amurg">
<defs>
<linearGradient id="cer" x1="0" y1="0" x2="0" y2="1">
  <stop offset="0%" stop-color="#141a2c"/>
  <stop offset="30%" stop-color="#33305e"/>
  <stop offset="58%" stop-color="#8a5580"/>
  <stop offset="80%" stop-color="#e8624c"/>
  <stop offset="100%" stop-color="#ffb27a"/>
</linearGradient>
<radialGradient id="soare" cx="50%" cy="50%" r="50%">
  <stop offset="0%" stop-color="#fff3d4" stop-opacity="1"/>
  <stop offset="40%" stop-color="#ffc27e" stop-opacity=".55"/>
  <stop offset="100%" stop-color="#ff6152" stop-opacity="0"/>
</radialGradient>
<radialGradient id="halo" cx="50%" cy="50%" r="50%">
  <stop offset="0%" stop-color="#ff6152" stop-opacity=".26"/>
  <stop offset="100%" stop-color="#ff6152" stop-opacity="0"/>
</radialGradient>
<linearGradient id="jos" x1="0" y1="0" x2="0" y2="1">
  <stop offset="0%" stop-color="#1a1430" stop-opacity="0"/>
  <stop offset="100%" stop-color="#0d1015"/>
</linearGradient>
</defs>
<rect width="1600" height="900" fill="url(#cer)"/>
<circle cx="1120" cy="400" r="330" fill="url(#soare)"/>
<circle cx="1120" cy="410" r="92" fill="#ffe4b5" opacity=".85"/>
<circle cx="330" cy="230" r="360" fill="url(#halo)"/>
<ellipse cx="1296" cy="150" rx="520" ry="21" fill="#ffffff" opacity="0.1"/>
<ellipse cx="816" cy="240" rx="400" ry="26" fill="#ffffff" opacity="0.08"/>
<ellipse cx="1054" cy="95" rx="300" ry="18" fill="#ffffff" opacity="0.07"/>
<ellipse cx="119" cy="320" rx="460" ry="25" fill="#ffffff" opacity="0.06"/>
<rect x="-40" y="318" width="69" height="172" fill="#3a3560" opacity=".55"/>
<rect x="33" y="329" width="88" height="161" fill="#3a3560" opacity=".55"/>
<rect x="130" y="302" width="66" height="188" fill="#3a3560" opacity=".55"/>
<rect x="204" y="405" width="58" height="85" fill="#3a3560" opacity=".55"/>
<rect x="267" y="323" width="54" height="167" fill="#3a3560" opacity=".55"/>
<rect x="325" y="332" width="88" height="158" fill="#3a3560" opacity=".55"/>
<rect x="419" y="315" width="83" height="175" fill="#3a3560" opacity=".55"/>
<rect x="505" y="415" width="55" height="75" fill="#3a3560" opacity=".55"/>
<rect x="566" y="412" width="65" height="78" fill="#3a3560" opacity=".55"/>
<rect x="635" y="409" width="66" height="81" fill="#3a3560" opacity=".55"/>
<rect x="706" y="411" width="50" height="79" fill="#3a3560" opacity=".55"/>
<rect x="764" y="365" width="66" height="125" fill="#3a3560" opacity=".55"/>
<rect x="838" y="328" width="64" height="162" fill="#3a3560" opacity=".55"/>
<rect x="907" y="359" width="47" height="131" fill="#3a3560" opacity=".55"/>
<rect x="956" y="328" width="83" height="162" fill="#3a3560" opacity=".55"/>
<rect x="1042" y="398" width="60" height="92" fill="#3a3560" opacity=".55"/>
<rect x="1106" y="294" width="93" height="196" fill="#3a3560" opacity=".55"/>
<rect x="1203" y="405" width="51" height="85" fill="#3a3560" opacity=".55"/>
<rect x="1259" y="321" width="76" height="169" fill="#3a3560" opacity=".55"/>
<rect x="1340" y="359" width="93" height="131" fill="#3a3560" opacity=".55"/>
<rect x="1438" y="410" width="94" height="80" fill="#3a3560" opacity=".55"/>
<rect x="1539" y="413" width="76" height="77" fill="#3a3560" opacity=".55"/>
<rect x="1621" y="359" width="85" height="131" fill="#3a3560" opacity=".55"/>
<rect x="-40" y="444" width="94" height="156" fill="#241f45" opacity=".88"/>
<rect x="14" y="484" width="7" height="11" fill="#ffd08a" opacity="0.89"/>
<rect x="-30" y="510" width="7" height="11" fill="#ffd08a" opacity="0.49"/>
<rect x="-8" y="510" width="7" height="11" fill="#ffd08a" opacity="0.83"/>
<rect x="-30" y="536" width="7" height="11" fill="#ffd08a" opacity="0.67"/>
<rect x="-8" y="536" width="7" height="11" fill="#ffd08a" opacity="0.55"/>
<rect x="-30" y="562" width="7" height="11" fill="#ffd08a" opacity="0.73"/>
<rect x="14" y="562" width="7" height="11" fill="#ffd08a" opacity="0.54"/>
<rect x="36" y="562" width="7" height="11" fill="#ffd08a" opacity="0.92"/>
<rect x="60" y="337" width="86" height="263" fill="#241f45" opacity=".88"/>
<rect x="70" y="377" width="7" height="11" fill="#ffd08a" opacity="0.89"/>
<rect x="70" y="429" width="7" height="11" fill="#ffd08a" opacity="0.8"/>
<rect x="70" y="481" width="7" height="11" fill="#ffd08a" opacity="0.61"/>
<rect x="92" y="507" width="7" height="11" fill="#ffd08a" opacity="0.64"/>
<rect x="114" y="507" width="7" height="11" fill="#ffd08a" opacity="0.91"/>
<rect x="136" y="507" width="7" height="11" fill="#ffd08a" opacity="0.91"/>
<rect x="136" y="533" width="7" height="11" fill="#ffd08a" opacity="0.72"/>
<rect x="70" y="559" width="7" height="11" fill="#ffd08a" opacity="0.84"/>
<rect x="136" y="585" width="7" height="11" fill="#ffd08a" opacity="0.87"/>
<rect x="148" y="408" width="107" height="192" fill="#241f45" opacity=".88"/>
<rect x="158" y="474" width="7" height="11" fill="#ffd08a" opacity="0.52"/>
<rect x="224" y="552" width="7" height="11" fill="#ffd08a" opacity="0.94"/>
<rect x="180" y="578" width="7" height="11" fill="#ffd08a" opacity="0.59"/>
<rect x="202" y="578" width="7" height="11" fill="#ffd08a" opacity="0.71"/>
<rect x="261" y="454" width="91" height="146" fill="#241f45" opacity=".88"/>
<rect x="271" y="468" width="7" height="11" fill="#ffd08a" opacity="0.81"/>
<rect x="293" y="494" width="7" height="11" fill="#ffd08a" opacity="0.57"/>
<rect x="271" y="520" width="7" height="11" fill="#ffd08a" opacity="0.57"/>
<rect x="337" y="520" width="7" height="11" fill="#ffd08a" opacity="0.46"/>
<rect x="337" y="572" width="7" height="11" fill="#ffd08a" opacity="0.55"/>
<rect x="361" y="383" width="68" height="217" fill="#241f45" opacity=".88"/>
<rect x="415" y="397" width="7" height="11" fill="#ffd08a" opacity="0.67"/>
<rect x="415" y="423" width="7" height="11" fill="#ffd08a" opacity="0.95"/>
<rect x="371" y="449" width="7" height="11" fill="#ffd08a" opacity="0.76"/>
<rect x="415" y="449" width="7" height="11" fill="#ffd08a" opacity="0.61"/>
<rect x="393" y="475" width="7" height="11" fill="#ffd08a" opacity="0.92"/>
<rect x="415" y="475" width="7" height="11" fill="#ffd08a" opacity="0.89"/>
<rect x="415" y="527" width="7" height="11" fill="#ffd08a" opacity="0.59"/>
<rect x="415" y="553" width="7" height="11" fill="#ffd08a" opacity="0.72"/>
<rect x="432" y="320" width="80" height="280" fill="#241f45" opacity=".88"/>
<rect x="486" y="334" width="7" height="11" fill="#ffd08a" opacity="0.68"/>
<rect x="464" y="360" width="7" height="11" fill="#ffd08a" opacity="0.53"/>
<rect x="486" y="360" width="7" height="11" fill="#ffd08a" opacity="0.93"/>
<rect x="442" y="412" width="7" height="11" fill="#ffd08a" opacity="0.57"/>
<rect x="442" y="438" width="7" height="11" fill="#ffd08a" opacity="0.61"/>
<rect x="442" y="464" width="7" height="11" fill="#ffd08a" opacity="0.45"/>
<rect x="486" y="464" width="7" height="11" fill="#ffd08a" opacity="0.82"/>
<rect x="464" y="490" width="7" height="11" fill="#ffd08a" opacity="0.99"/>
<rect x="486" y="490" width="7" height="11" fill="#ffd08a" opacity="0.49"/>
<rect x="464" y="516" width="7" height="11" fill="#ffd08a" opacity="0.98"/>
<rect x="486" y="542" width="7" height="11" fill="#ffd08a" opacity="0.67"/>
<rect x="464" y="568" width="7" height="11" fill="#ffd08a" opacity="0.47"/>
<rect x="519" y="356" width="101" height="244" fill="#241f45" opacity=".88"/>
<rect x="595" y="396" width="7" height="11" fill="#ffd08a" opacity="0.64"/>
<rect x="595" y="448" width="7" height="11" fill="#ffd08a" opacity="0.99"/>
<rect x="529" y="500" width="7" height="11" fill="#ffd08a" opacity="0.94"/>
<rect x="595" y="526" width="7" height="11" fill="#ffd08a" opacity="0.75"/>
<rect x="529" y="578" width="7" height="11" fill="#ffd08a" opacity="0.99"/>
<rect x="622" y="391" width="77" height="209" fill="#241f45" opacity=".88"/>
<rect x="632" y="405" width="7" height="11" fill="#ffd08a" opacity="0.5"/>
<rect x="654" y="405" width="7" height="11" fill="#ffd08a" opacity="0.49"/>
<rect x="632" y="431" width="7" height="11" fill="#ffd08a" opacity="0.82"/>
<rect x="676" y="431" width="7" height="11" fill="#ffd08a" opacity="0.67"/>
<rect x="632" y="457" width="7" height="11" fill="#ffd08a" opacity="0.67"/>
<rect x="654" y="457" width="7" height="11" fill="#ffd08a" opacity="0.96"/>
<rect x="676" y="483" width="7" height="11" fill="#ffd08a" opacity="0.51"/>
<rect x="654" y="509" width="7" height="11" fill="#ffd08a" opacity="0.7"/>
<rect x="632" y="587" width="7" height="11" fill="#ffd08a" opacity="0.56"/>
<rect x="701" y="302" width="93" height="298" fill="#241f45" opacity=".88"/>
<rect x="711" y="316" width="7" height="11" fill="#ffd08a" opacity="0.93"/>
<rect x="777" y="368" width="7" height="11" fill="#ffd08a" opacity="0.67"/>
<rect x="711" y="394" width="7" height="11" fill="#ffd08a" opacity="0.55"/>
<rect x="711" y="420" width="7" height="11" fill="#ffd08a" opacity="0.58"/>
<rect x="755" y="420" width="7" height="11" fill="#ffd08a" opacity="0.89"/>
<rect x="733" y="446" width="7" height="11" fill="#ffd08a" opacity="0.73"/>
<rect x="755" y="498" width="7" height="11" fill="#ffd08a" opacity="0.57"/>
<rect x="777" y="498" width="7" height="11" fill="#ffd08a" opacity="0.6"/>
<rect x="711" y="524" width="7" height="11" fill="#ffd08a" opacity="0.64"/>
<rect x="777" y="524" width="7" height="11" fill="#ffd08a" opacity="0.79"/>
<rect x="755" y="550" width="7" height="11" fill="#ffd08a" opacity="0.54"/>
<rect x="777" y="550" width="7" height="11" fill="#ffd08a" opacity="0.86"/>
<rect x="733" y="576" width="7" height="11" fill="#ffd08a" opacity="0.58"/>
<rect x="802" y="396" width="91" height="204" fill="#241f45" opacity=".88"/>
<rect x="856" y="410" width="7" height="11" fill="#ffd08a" opacity="0.63"/>
<rect x="878" y="436" width="7" height="11" fill="#ffd08a" opacity="0.55"/>
<rect x="812" y="514" width="7" height="11" fill="#ffd08a" opacity="0.94"/>
<rect x="812" y="566" width="7" height="11" fill="#ffd08a" opacity="0.74"/>
<rect x="878" y="566" width="7" height="11" fill="#ffd08a" opacity="0.64"/>
<rect x="898" y="389" width="56" height="211" fill="#241f45" opacity=".88"/>
<rect x="908" y="403" width="7" height="11" fill="#ffd08a" opacity="0.51"/>
<rect x="930" y="429" width="7" height="11" fill="#ffd08a" opacity="0.89"/>
<rect x="908" y="455" width="7" height="11" fill="#ffd08a" opacity="0.81"/>
<rect x="908" y="533" width="7" height="11" fill="#ffd08a" opacity="0.99"/>
<rect x="956" y="371" width="62" height="229" fill="#241f45" opacity=".88"/>
<rect x="966" y="385" width="7" height="11" fill="#ffd08a" opacity="0.76"/>
<rect x="988" y="385" width="7" height="11" fill="#ffd08a" opacity="0.68"/>
<rect x="966" y="411" width="7" height="11" fill="#ffd08a" opacity="0.68"/>
<rect x="988" y="489" width="7" height="11" fill="#ffd08a" opacity="0.7"/>
<rect x="988" y="515" width="7" height="11" fill="#ffd08a" opacity="0.53"/>
<rect x="966" y="541" width="7" height="11" fill="#ffd08a" opacity="0.79"/>
<rect x="966" y="567" width="7" height="11" fill="#ffd08a" opacity="0.52"/>
<rect x="988" y="567" width="7" height="11" fill="#ffd08a" opacity="0.63"/>
<rect x="1024" y="351" width="99" height="249" fill="#241f45" opacity=".88"/>
<rect x="1100" y="391" width="7" height="11" fill="#ffd08a" opacity="0.5"/>
<rect x="1056" y="417" width="7" height="11" fill="#ffd08a" opacity="0.89"/>
<rect x="1100" y="443" width="7" height="11" fill="#ffd08a" opacity="0.46"/>
<rect x="1078" y="469" width="7" height="11" fill="#ffd08a" opacity="0.45"/>
<rect x="1100" y="469" width="7" height="11" fill="#ffd08a" opacity="0.78"/>
<rect x="1078" y="495" width="7" height="11" fill="#ffd08a" opacity="0.48"/>
<rect x="1034" y="521" width="7" height="11" fill="#ffd08a" opacity="0.82"/>
<rect x="1034" y="547" width="7" height="11" fill="#ffd08a" opacity="0.52"/>
<rect x="1056" y="547" width="7" height="11" fill="#ffd08a" opacity="0.99"/>
<rect x="1056" y="573" width="7" height="11" fill="#ffd08a" opacity="0.84"/>
<rect x="1132" y="446" width="74" height="154" fill="#241f45" opacity=".88"/>
<rect x="1164" y="460" width="7" height="11" fill="#ffd08a" opacity="0.64"/>
<rect x="1164" y="486" width="7" height="11" fill="#ffd08a" opacity="0.46"/>
<rect x="1142" y="512" width="7" height="11" fill="#ffd08a" opacity="0.73"/>
<rect x="1186" y="512" width="7" height="11" fill="#ffd08a" opacity="0.54"/>
<rect x="1213" y="446" width="83" height="154" fill="#241f45" opacity=".88"/>
<rect x="1267" y="460" width="7" height="11" fill="#ffd08a" opacity="0.49"/>
<rect x="1245" y="486" width="7" height="11" fill="#ffd08a" opacity="0.48"/>
<rect x="1267" y="512" width="7" height="11" fill="#ffd08a" opacity="0.48"/>
<rect x="1223" y="538" width="7" height="11" fill="#ffd08a" opacity="0.99"/>
<rect x="1267" y="538" width="7" height="11" fill="#ffd08a" opacity="0.46"/>
<rect x="1303" y="420" width="93" height="180" fill="#241f45" opacity=".88"/>
<rect x="1313" y="434" width="7" height="11" fill="#ffd08a" opacity="0.79"/>
<rect x="1335" y="434" width="7" height="11" fill="#ffd08a" opacity="0.85"/>
<rect x="1379" y="434" width="7" height="11" fill="#ffd08a" opacity="0.53"/>
<rect x="1313" y="460" width="7" height="11" fill="#ffd08a" opacity="0.83"/>
<rect x="1313" y="512" width="7" height="11" fill="#ffd08a" opacity="0.51"/>
<rect x="1357" y="512" width="7" height="11" fill="#ffd08a" opacity="0.9"/>
<rect x="1313" y="538" width="7" height="11" fill="#ffd08a" opacity="0.93"/>
<rect x="1357" y="538" width="7" height="11" fill="#ffd08a" opacity="0.7"/>
<rect x="1379" y="564" width="7" height="11" fill="#ffd08a" opacity="0.51"/>
<rect x="1403" y="390" width="101" height="210" fill="#241f45" opacity=".88"/>
<rect x="1479" y="404" width="7" height="11" fill="#ffd08a" opacity="0.47"/>
<rect x="1435" y="430" width="7" height="11" fill="#ffd08a" opacity="0.87"/>
<rect x="1457" y="456" width="7" height="11" fill="#ffd08a" opacity="0.59"/>
<rect x="1479" y="456" width="7" height="11" fill="#ffd08a" opacity="0.88"/>
<rect x="1413" y="482" width="7" height="11" fill="#ffd08a" opacity="0.91"/>
<rect x="1479" y="482" width="7" height="11" fill="#ffd08a" opacity="0.8"/>
<rect x="1457" y="508" width="7" height="11" fill="#ffd08a" opacity="0.71"/>
<rect x="1413" y="534" width="7" height="11" fill="#ffd08a" opacity="0.86"/>
<rect x="1435" y="534" width="7" height="11" fill="#ffd08a" opacity="0.65"/>
<rect x="1413" y="560" width="7" height="11" fill="#ffd08a" opacity="0.48"/>
<rect x="1435" y="560" width="7" height="11" fill="#ffd08a" opacity="0.47"/>
<rect x="1413" y="586" width="7" height="11" fill="#ffd08a" opacity="0.71"/>
<rect x="1479" y="586" width="7" height="11" fill="#ffd08a" opacity="0.45"/>
<rect x="1511" y="327" width="69" height="273" fill="#241f45" opacity=".88"/>
<rect x="1565" y="341" width="7" height="11" fill="#ffd08a" opacity="0.53"/>
<rect x="1521" y="393" width="7" height="11" fill="#ffd08a" opacity="0.75"/>
<rect x="1543" y="393" width="7" height="11" fill="#ffd08a" opacity="0.55"/>
<rect x="1543" y="419" width="7" height="11" fill="#ffd08a" opacity="0.92"/>
<rect x="1521" y="497" width="7" height="11" fill="#ffd08a" opacity="0.64"/>
<rect x="1521" y="575" width="7" height="11" fill="#ffd08a" opacity="0.52"/>
<rect x="1584" y="475" width="80" height="125" fill="#241f45" opacity=".88"/>
<rect x="1594" y="515" width="7" height="11" fill="#ffd08a" opacity="0.45"/>
<rect x="1638" y="515" width="7" height="11" fill="#ffd08a" opacity="0.83"/>
<rect x="1616" y="541" width="7" height="11" fill="#ffd08a" opacity="0.52"/>
<rect x="1616" y="567" width="7" height="11" fill="#ffd08a" opacity="0.72"/>
<rect x="-40" y="552" width="74" height="178" fill="#140f28" opacity=".97"/>
<rect x="-30" y="566" width="7" height="11" fill="#ffc06a" opacity="0.54"/>
<rect x="-8" y="644" width="7" height="11" fill="#ffc06a" opacity="0.62"/>
<rect x="-30" y="670" width="7" height="11" fill="#ffc06a" opacity="0.96"/>
<rect x="14" y="670" width="7" height="11" fill="#ffc06a" opacity="0.68"/>
<rect x="-8" y="696" width="7" height="11" fill="#ffc06a" opacity="0.52"/>
<rect x="14" y="696" width="7" height="11" fill="#ffc06a" opacity="0.9"/>
<rect x="39" y="419" width="98" height="311" fill="#140f28" opacity=".97"/>
<rect x="49" y="433" width="7" height="11" fill="#ffc06a" opacity="0.73"/>
<rect x="71" y="433" width="7" height="11" fill="#ffc06a" opacity="0.55"/>
<rect x="71" y="459" width="7" height="11" fill="#ffc06a" opacity="0.67"/>
<rect x="93" y="459" width="7" height="11" fill="#ffc06a" opacity="0.74"/>
<rect x="115" y="459" width="7" height="11" fill="#ffc06a" opacity="0.97"/>
<rect x="49" y="485" width="7" height="11" fill="#ffc06a" opacity="0.95"/>
<rect x="71" y="511" width="7" height="11" fill="#ffc06a" opacity="0.8"/>
<rect x="93" y="511" width="7" height="11" fill="#ffc06a" opacity="0.91"/>
<rect x="115" y="537" width="7" height="11" fill="#ffc06a" opacity="0.6"/>
<rect x="115" y="589" width="7" height="11" fill="#ffc06a" opacity="0.49"/>
<rect x="49" y="615" width="7" height="11" fill="#ffc06a" opacity="0.73"/>
<rect x="71" y="615" width="7" height="11" fill="#ffc06a" opacity="0.57"/>
<rect x="71" y="641" width="7" height="11" fill="#ffc06a" opacity="0.6"/>
<rect x="71" y="667" width="7" height="11" fill="#ffc06a" opacity="0.99"/>
<rect x="115" y="667" width="7" height="11" fill="#ffc06a" opacity="0.51"/>
<rect x="49" y="693" width="7" height="11" fill="#ffc06a" opacity="0.83"/>
<rect x="139" y="419" width="115" height="311" fill="#140f28" opacity=".97"/>
<rect x="171" y="433" width="7" height="11" fill="#ffc06a" opacity="0.49"/>
<rect x="193" y="433" width="7" height="11" fill="#ffc06a" opacity="0.47"/>
<rect x="237" y="433" width="7" height="11" fill="#ffc06a" opacity="0.85"/>
<rect x="171" y="459" width="7" height="11" fill="#ffc06a" opacity="0.47"/>
<rect x="193" y="459" width="7" height="11" fill="#ffc06a" opacity="0.84"/>
<rect x="171" y="485" width="7" height="11" fill="#ffc06a" opacity="0.59"/>
<rect x="215" y="485" width="7" height="11" fill="#ffc06a" opacity="0.86"/>
<rect x="193" y="511" width="7" height="11" fill="#ffc06a" opacity="0.56"/>
<rect x="149" y="537" width="7" height="11" fill="#ffc06a" opacity="0.75"/>
<rect x="171" y="537" width="7" height="11" fill="#ffc06a" opacity="0.75"/>
<rect x="215" y="537" width="7" height="11" fill="#ffc06a" opacity="0.46"/>
<rect x="149" y="589" width="7" height="11" fill="#ffc06a" opacity="0.94"/>
<rect x="193" y="589" width="7" height="11" fill="#ffc06a" opacity="0.85"/>
<rect x="237" y="589" width="7" height="11" fill="#ffc06a" opacity="0.73"/>
<rect x="193" y="615" width="7" height="11" fill="#ffc06a" opacity="0.46"/>
<rect x="215" y="615" width="7" height="11" fill="#ffc06a" opacity="0.99"/>
<rect x="149" y="641" width="7" height="11" fill="#ffc06a" opacity="0.73"/>
<rect x="193" y="641" width="7" height="11" fill="#ffc06a" opacity="0.71"/>
<rect x="149" y="667" width="7" height="11" fill="#ffc06a" opacity="0.86"/>
<rect x="193" y="667" width="7" height="11" fill="#ffc06a" opacity="0.56"/>
<rect x="149" y="693" width="7" height="11" fill="#ffc06a" opacity="0.5"/>
<rect x="237" y="693" width="7" height="11" fill="#ffc06a" opacity="0.77"/>
<rect x="261" y="523" width="118" height="207" fill="#140f28" opacity=".97"/>
<rect x="271" y="537" width="7" height="11" fill="#ffc06a" opacity="0.92"/>
<rect x="293" y="537" width="7" height="11" fill="#ffc06a" opacity="0.73"/>
<rect x="315" y="537" width="7" height="11" fill="#ffc06a" opacity="0.89"/>
<rect x="271" y="563" width="7" height="11" fill="#ffc06a" opacity="0.85"/>
<rect x="293" y="563" width="7" height="11" fill="#ffc06a" opacity="0.9"/>
<rect x="315" y="563" width="7" height="11" fill="#ffc06a" opacity="0.65"/>
<rect x="337" y="563" width="7" height="11" fill="#ffc06a" opacity="1.0"/>
<rect x="293" y="589" width="7" height="11" fill="#ffc06a" opacity="0.75"/>
<rect x="359" y="589" width="7" height="11" fill="#ffc06a" opacity="0.68"/>
<rect x="293" y="615" width="7" height="11" fill="#ffc06a" opacity="0.77"/>
<rect x="359" y="615" width="7" height="11" fill="#ffc06a" opacity="0.79"/>
<rect x="293" y="641" width="7" height="11" fill="#ffc06a" opacity="0.84"/>
<rect x="271" y="667" width="7" height="11" fill="#ffc06a" opacity="0.91"/>
<rect x="337" y="667" width="7" height="11" fill="#ffc06a" opacity="0.82"/>
<rect x="359" y="693" width="7" height="11" fill="#ffc06a" opacity="0.51"/>
<rect x="383" y="402" width="105" height="328" fill="#140f28" opacity=".97"/>
<rect x="415" y="416" width="7" height="11" fill="#ffc06a" opacity="0.5"/>
<rect x="437" y="442" width="7" height="11" fill="#ffc06a" opacity="0.99"/>
<rect x="415" y="468" width="7" height="11" fill="#ffc06a" opacity="0.83"/>
<rect x="437" y="468" width="7" height="11" fill="#ffc06a" opacity="0.59"/>
<rect x="437" y="494" width="7" height="11" fill="#ffc06a" opacity="0.63"/>
<rect x="459" y="520" width="7" height="11" fill="#ffc06a" opacity="0.91"/>
<rect x="415" y="546" width="7" height="11" fill="#ffc06a" opacity="0.49"/>
<rect x="459" y="546" width="7" height="11" fill="#ffc06a" opacity="0.95"/>
<rect x="393" y="572" width="7" height="11" fill="#ffc06a" opacity="0.67"/>
<rect x="459" y="572" width="7" height="11" fill="#ffc06a" opacity="0.78"/>
<rect x="393" y="650" width="7" height="11" fill="#ffc06a" opacity="0.96"/>
<rect x="393" y="676" width="7" height="11" fill="#ffc06a" opacity="0.97"/>
<rect x="437" y="676" width="7" height="11" fill="#ffc06a" opacity="0.64"/>
<rect x="393" y="702" width="7" height="11" fill="#ffc06a" opacity="0.8"/>
<rect x="459" y="702" width="7" height="11" fill="#ffc06a" opacity="0.57"/>
<rect x="496" y="552" width="108" height="178" fill="#140f28" opacity=".97"/>
<rect x="550" y="566" width="7" height="11" fill="#ffc06a" opacity="0.63"/>
<rect x="572" y="566" width="7" height="11" fill="#ffc06a" opacity="0.51"/>
<rect x="528" y="592" width="7" height="11" fill="#ffc06a" opacity="0.73"/>
<rect x="594" y="592" width="7" height="11" fill="#ffc06a" opacity="0.61"/>
<rect x="528" y="618" width="7" height="11" fill="#ffc06a" opacity="0.51"/>
<rect x="572" y="618" width="7" height="11" fill="#ffc06a" opacity="0.7"/>
<rect x="550" y="644" width="7" height="11" fill="#ffc06a" opacity="0.67"/>
<rect x="572" y="644" width="7" height="11" fill="#ffc06a" opacity="0.63"/>
<rect x="594" y="644" width="7" height="11" fill="#ffc06a" opacity="0.54"/>
<rect x="506" y="670" width="7" height="11" fill="#ffc06a" opacity="0.56"/>
<rect x="609" y="418" width="88" height="312" fill="#140f28" opacity=".97"/>
<rect x="619" y="458" width="7" height="11" fill="#ffc06a" opacity="0.99"/>
<rect x="663" y="458" width="7" height="11" fill="#ffc06a" opacity="0.72"/>
<rect x="641" y="484" width="7" height="11" fill="#ffc06a" opacity="0.95"/>
<rect x="619" y="510" width="7" height="11" fill="#ffc06a" opacity="0.79"/>
<rect x="641" y="510" width="7" height="11" fill="#ffc06a" opacity="0.92"/>
<rect x="685" y="510" width="7" height="11" fill="#ffc06a" opacity="0.5"/>
<rect x="641" y="536" width="7" height="11" fill="#ffc06a" opacity="0.63"/>
<rect x="641" y="588" width="7" height="11" fill="#ffc06a" opacity="0.7"/>
<rect x="663" y="588" width="7" height="11" fill="#ffc06a" opacity="0.77"/>
<rect x="641" y="640" width="7" height="11" fill="#ffc06a" opacity="0.61"/>
<rect x="619" y="666" width="7" height="11" fill="#ffc06a" opacity="0.5"/>
<rect x="641" y="666" width="7" height="11" fill="#ffc06a" opacity="0.5"/>
<rect x="663" y="666" width="7" height="11" fill="#ffc06a" opacity="0.86"/>
<rect x="619" y="692" width="7" height="11" fill="#ffc06a" opacity="0.53"/>
<rect x="706" y="553" width="94" height="177" fill="#140f28" opacity=".97"/>
<rect x="760" y="567" width="7" height="11" fill="#ffc06a" opacity="0.55"/>
<rect x="716" y="619" width="7" height="11" fill="#ffc06a" opacity="0.94"/>
<rect x="760" y="645" width="7" height="11" fill="#ffc06a" opacity="0.53"/>
<rect x="738" y="671" width="7" height="11" fill="#ffc06a" opacity="0.47"/>
<rect x="760" y="671" width="7" height="11" fill="#ffc06a" opacity="0.97"/>
<rect x="716" y="697" width="7" height="11" fill="#ffc06a" opacity="0.71"/>
<rect x="804" y="490" width="77" height="240" fill="#140f28" opacity=".97"/>
<rect x="836" y="504" width="7" height="11" fill="#ffc06a" opacity="0.57"/>
<rect x="858" y="530" width="7" height="11" fill="#ffc06a" opacity="0.98"/>
<rect x="814" y="556" width="7" height="11" fill="#ffc06a" opacity="0.99"/>
<rect x="814" y="608" width="7" height="11" fill="#ffc06a" opacity="0.98"/>
<rect x="814" y="634" width="7" height="11" fill="#ffc06a" opacity="0.65"/>
<rect x="814" y="660" width="7" height="11" fill="#ffc06a" opacity="0.67"/>
<rect x="836" y="660" width="7" height="11" fill="#ffc06a" opacity="0.81"/>
<rect x="858" y="660" width="7" height="11" fill="#ffc06a" opacity="0.99"/>
<rect x="814" y="686" width="7" height="11" fill="#ffc06a" opacity="0.46"/>
<rect x="836" y="686" width="7" height="11" fill="#ffc06a" opacity="0.91"/>
<rect x="858" y="686" width="7" height="11" fill="#ffc06a" opacity="0.61"/>
<rect x="889" y="494" width="92" height="236" fill="#140f28" opacity=".97"/>
<rect x="943" y="508" width="7" height="11" fill="#ffc06a" opacity="0.81"/>
<rect x="965" y="508" width="7" height="11" fill="#ffc06a" opacity="0.86"/>
<rect x="921" y="534" width="7" height="11" fill="#ffc06a" opacity="0.81"/>
<rect x="965" y="534" width="7" height="11" fill="#ffc06a" opacity="0.73"/>
<rect x="943" y="560" width="7" height="11" fill="#ffc06a" opacity="0.93"/>
<rect x="899" y="586" width="7" height="11" fill="#ffc06a" opacity="0.89"/>
<rect x="965" y="586" width="7" height="11" fill="#ffc06a" opacity="0.56"/>
<rect x="899" y="612" width="7" height="11" fill="#ffc06a" opacity="0.79"/>
<rect x="921" y="612" width="7" height="11" fill="#ffc06a" opacity="0.97"/>
<rect x="921" y="638" width="7" height="11" fill="#ffc06a" opacity="0.54"/>
<rect x="965" y="638" width="7" height="11" fill="#ffc06a" opacity="0.99"/>
<rect x="921" y="664" width="7" height="11" fill="#ffc06a" opacity="0.59"/>
<rect x="943" y="664" width="7" height="11" fill="#ffc06a" opacity="0.79"/>
<rect x="965" y="664" width="7" height="11" fill="#ffc06a" opacity="0.91"/>
<rect x="899" y="690" width="7" height="11" fill="#ffc06a" opacity="0.79"/>
<rect x="943" y="690" width="7" height="11" fill="#ffc06a" opacity="0.82"/>
<rect x="965" y="690" width="7" height="11" fill="#ffc06a" opacity="0.89"/>
<rect x="899" y="716" width="7" height="11" fill="#ffc06a" opacity="0.54"/>
<rect x="921" y="716" width="7" height="11" fill="#ffc06a" opacity="0.89"/>
<rect x="943" y="716" width="7" height="11" fill="#ffc06a" opacity="0.62"/>
<rect x="987" y="417" width="115" height="313" fill="#140f28" opacity=".97"/>
<rect x="1019" y="431" width="7" height="11" fill="#ffc06a" opacity="0.83"/>
<rect x="997" y="457" width="7" height="11" fill="#ffc06a" opacity="0.55"/>
<rect x="1019" y="457" width="7" height="11" fill="#ffc06a" opacity="0.6"/>
<rect x="1085" y="457" width="7" height="11" fill="#ffc06a" opacity="0.87"/>
<rect x="1019" y="483" width="7" height="11" fill="#ffc06a" opacity="0.48"/>
<rect x="1041" y="483" width="7" height="11" fill="#ffc06a" opacity="0.78"/>
<rect x="1063" y="483" width="7" height="11" fill="#ffc06a" opacity="0.9"/>
<rect x="1085" y="483" width="7" height="11" fill="#ffc06a" opacity="0.92"/>
<rect x="997" y="509" width="7" height="11" fill="#ffc06a" opacity="0.74"/>
<rect x="1085" y="509" width="7" height="11" fill="#ffc06a" opacity="0.63"/>
<rect x="1041" y="535" width="7" height="11" fill="#ffc06a" opacity="0.53"/>
<rect x="1019" y="561" width="7" height="11" fill="#ffc06a" opacity="0.52"/>
<rect x="1041" y="561" width="7" height="11" fill="#ffc06a" opacity="0.91"/>
<rect x="1085" y="561" width="7" height="11" fill="#ffc06a" opacity="0.64"/>
<rect x="1063" y="587" width="7" height="11" fill="#ffc06a" opacity="0.94"/>
<rect x="1041" y="613" width="7" height="11" fill="#ffc06a" opacity="0.48"/>
<rect x="1041" y="639" width="7" height="11" fill="#ffc06a" opacity="0.71"/>
<rect x="1085" y="639" width="7" height="11" fill="#ffc06a" opacity="0.73"/>
<rect x="997" y="665" width="7" height="11" fill="#ffc06a" opacity="0.99"/>
<rect x="1041" y="665" width="7" height="11" fill="#ffc06a" opacity="0.48"/>
<rect x="1063" y="665" width="7" height="11" fill="#ffc06a" opacity="0.85"/>
<rect x="1085" y="665" width="7" height="11" fill="#ffc06a" opacity="0.69"/>
<rect x="997" y="691" width="7" height="11" fill="#ffc06a" opacity="0.67"/>
<rect x="1085" y="691" width="7" height="11" fill="#ffc06a" opacity="0.85"/>
<rect x="997" y="717" width="7" height="11" fill="#ffc06a" opacity="0.79"/>
<rect x="1041" y="717" width="7" height="11" fill="#ffc06a" opacity="0.68"/>
<rect x="1111" y="498" width="82" height="232" fill="#140f28" opacity=".97"/>
<rect x="1165" y="512" width="7" height="11" fill="#ffc06a" opacity="0.55"/>
<rect x="1143" y="538" width="7" height="11" fill="#ffc06a" opacity="0.82"/>
<rect x="1121" y="564" width="7" height="11" fill="#ffc06a" opacity="0.91"/>
<rect x="1165" y="564" width="7" height="11" fill="#ffc06a" opacity="0.55"/>
<rect x="1165" y="590" width="7" height="11" fill="#ffc06a" opacity="0.51"/>
<rect x="1121" y="616" width="7" height="11" fill="#ffc06a" opacity="0.81"/>
<rect x="1165" y="616" width="7" height="11" fill="#ffc06a" opacity="0.95"/>
<rect x="1165" y="668" width="7" height="11" fill="#ffc06a" opacity="0.66"/>
<rect x="1165" y="694" width="7" height="11" fill="#ffc06a" opacity="0.94"/>
<rect x="1200" y="454" width="104" height="276" fill="#140f28" opacity=".97"/>
<rect x="1276" y="468" width="7" height="11" fill="#ffc06a" opacity="0.48"/>
<rect x="1210" y="494" width="7" height="11" fill="#ffc06a" opacity="0.66"/>
<rect x="1232" y="520" width="7" height="11" fill="#ffc06a" opacity="0.96"/>
<rect x="1232" y="546" width="7" height="11" fill="#ffc06a" opacity="0.46"/>
<rect x="1210" y="572" width="7" height="11" fill="#ffc06a" opacity="0.99"/>
<rect x="1210" y="598" width="7" height="11" fill="#ffc06a" opacity="0.77"/>
<rect x="1254" y="650" width="7" height="11" fill="#ffc06a" opacity="0.83"/>
<rect x="1276" y="650" width="7" height="11" fill="#ffc06a" opacity="0.96"/>
<rect x="1232" y="676" width="7" height="11" fill="#ffc06a" opacity="0.99"/>
<rect x="1276" y="702" width="7" height="11" fill="#ffc06a" opacity="0.57"/>
<rect x="1307" y="538" width="106" height="192" fill="#140f28" opacity=".97"/>
<rect x="1317" y="578" width="7" height="11" fill="#ffc06a" opacity="0.62"/>
<rect x="1339" y="578" width="7" height="11" fill="#ffc06a" opacity="0.77"/>
<rect x="1383" y="578" width="7" height="11" fill="#ffc06a" opacity="0.62"/>
<rect x="1317" y="604" width="7" height="11" fill="#ffc06a" opacity="0.97"/>
<rect x="1361" y="604" width="7" height="11" fill="#ffc06a" opacity="0.68"/>
<rect x="1317" y="630" width="7" height="11" fill="#ffc06a" opacity="0.54"/>
<rect x="1361" y="656" width="7" height="11" fill="#ffc06a" opacity="0.64"/>
<rect x="1361" y="682" width="7" height="11" fill="#ffc06a" opacity="0.55"/>
<rect x="1383" y="682" width="7" height="11" fill="#ffc06a" opacity="0.62"/>
<rect x="1339" y="708" width="7" height="11" fill="#ffc06a" opacity="0.71"/>
<rect x="1383" y="708" width="7" height="11" fill="#ffc06a" opacity="0.5"/>
<rect x="1419" y="441" width="79" height="289" fill="#140f28" opacity=".97"/>
<rect x="1473" y="455" width="7" height="11" fill="#ffc06a" opacity="0.92"/>
<rect x="1451" y="481" width="7" height="11" fill="#ffc06a" opacity="0.85"/>
<rect x="1429" y="533" width="7" height="11" fill="#ffc06a" opacity="0.6"/>
<rect x="1451" y="533" width="7" height="11" fill="#ffc06a" opacity="0.96"/>
<rect x="1473" y="533" width="7" height="11" fill="#ffc06a" opacity="0.88"/>
<rect x="1451" y="559" width="7" height="11" fill="#ffc06a" opacity="0.75"/>
<rect x="1473" y="559" width="7" height="11" fill="#ffc06a" opacity="0.56"/>
<rect x="1429" y="585" width="7" height="11" fill="#ffc06a" opacity="0.55"/>
<rect x="1473" y="585" width="7" height="11" fill="#ffc06a" opacity="0.69"/>
<rect x="1429" y="611" width="7" height="11" fill="#ffc06a" opacity="0.58"/>
<rect x="1451" y="611" width="7" height="11" fill="#ffc06a" opacity="0.61"/>
<rect x="1451" y="637" width="7" height="11" fill="#ffc06a" opacity="0.95"/>
<rect x="1429" y="715" width="7" height="11" fill="#ffc06a" opacity="0.47"/>
<rect x="1506" y="529" width="67" height="201" fill="#140f28" opacity=".97"/>
<rect x="1538" y="543" width="7" height="11" fill="#ffc06a" opacity="0.82"/>
<rect x="1516" y="569" width="7" height="11" fill="#ffc06a" opacity="0.57"/>
<rect x="1560" y="595" width="7" height="11" fill="#ffc06a" opacity="0.46"/>
<rect x="1560" y="621" width="7" height="11" fill="#ffc06a" opacity="0.95"/>
<rect x="1538" y="647" width="7" height="11" fill="#ffc06a" opacity="0.9"/>
<rect x="1516" y="673" width="7" height="11" fill="#ffc06a" opacity="0.71"/>
<rect x="1538" y="673" width="7" height="11" fill="#ffc06a" opacity="0.87"/>
<rect x="1560" y="673" width="7" height="11" fill="#ffc06a" opacity="0.61"/>
<rect x="1516" y="699" width="7" height="11" fill="#ffc06a" opacity="0.81"/>
<rect x="1538" y="699" width="7" height="11" fill="#ffc06a" opacity="0.46"/>
<rect x="1560" y="699" width="7" height="11" fill="#ffc06a" opacity="0.67"/>
<rect x="1582" y="434" width="121" height="296" fill="#140f28" opacity=".97"/>
<rect x="1680" y="448" width="7" height="11" fill="#ffc06a" opacity="0.62"/>
<rect x="1614" y="474" width="7" height="11" fill="#ffc06a" opacity="0.94"/>
<rect x="1636" y="474" width="7" height="11" fill="#ffc06a" opacity="0.53"/>
<rect x="1592" y="500" width="7" height="11" fill="#ffc06a" opacity="0.85"/>
<rect x="1614" y="500" width="7" height="11" fill="#ffc06a" opacity="0.57"/>
<rect x="1614" y="526" width="7" height="11" fill="#ffc06a" opacity="0.54"/>
<rect x="1592" y="552" width="7" height="11" fill="#ffc06a" opacity="0.53"/>
<rect x="1680" y="552" width="7" height="11" fill="#ffc06a" opacity="0.7"/>
<rect x="1592" y="578" width="7" height="11" fill="#ffc06a" opacity="0.54"/>
<rect x="1636" y="604" width="7" height="11" fill="#ffc06a" opacity="0.51"/>
<rect x="1658" y="604" width="7" height="11" fill="#ffc06a" opacity="0.7"/>
<rect x="1614" y="630" width="7" height="11" fill="#ffc06a" opacity="0.69"/>
<rect x="1636" y="630" width="7" height="11" fill="#ffc06a" opacity="0.63"/>
<rect x="1614" y="656" width="7" height="11" fill="#ffc06a" opacity="0.74"/>
<rect x="1680" y="656" width="7" height="11" fill="#ffc06a" opacity="0.54"/>
<rect x="1592" y="682" width="7" height="11" fill="#ffc06a" opacity="0.92"/>
<rect x="1658" y="682" width="7" height="11" fill="#ffc06a" opacity="0.6"/>
<rect x="1680" y="682" width="7" height="11" fill="#ffc06a" opacity="0.87"/>
<rect x="1680" y="708" width="7" height="11" fill="#ffc06a" opacity="0.52"/>
<rect x="0" y="640" width="1600" height="260" fill="url(#jos)"/>
</svg>