<svg xmlns="http://www.w3.org/2000/svg" viewBox="0 0 1280 720" width="1280" height="720" role="img" aria-label="Festival"><defs>
    <linearGradient id="sky" x1="0" y1="0" x2="0" y2="1">
      <stop offset="0%" stop-color="#241b3d"/><stop offset="55%" stop-color="#5b3f9e"/><stop offset="100%" stop-color="#f6a5c0"/>
    </linearGradient>
    <linearGradient id="far" x1="0" y1="0" x2="0" y2="1">
      <stop offset="0%" stop-color="#ffffff" stop-opacity=".22"/><stop offset="100%" stop-color="#000000" stop-opacity=".18"/>
    </linearGradient>
    <linearGradient id="near" x1="0" y1="0" x2="0" y2="1">
      <stop offset="0%" stop-color="#000000" stop-opacity=".38"/><stop offset="100%" stop-color="#000000" stop-opacity=".62"/>
    </linearGradient>
  </defs>
  <rect width="1280" height="720" fill="url(#sky)"/>
  <circle cx="998" cy="187" r="54" fill="#fff" opacity=".35"/>
  <circle cx="998" cy="187" r="36" fill="#fff" opacity=".55"/><g fill="url(#far)" opacity="1"><rect x="-20" y="296" width="52" height="290" rx="2"/><rect x="44" y="357" width="58" height="229" rx="2"/><rect x="114" y="411" width="40" height="175" rx="2"/><rect x="166" y="447" width="53" height="139" rx="2"/><rect x="231" y="348" width="55" height="238" rx="2"/><rect x="298" y="452" width="56" height="134" rx="2"/><rect x="366" y="378" width="61" height="208" rx="2"/><rect x="439" y="401" width="40" height="185" rx="2"/><rect x="491" y="300" width="59" height="286" rx="2"/><rect x="562" y="297" width="67" height="289" rx="2"/><rect x="641" y="412" width="61" height="174" rx="2"/><rect x="714" y="378" width="53" height="208" rx="2"/><rect x="779" y="429" width="58" height="157" rx="2"/><rect x="849" y="342" width="55" height="244" rx="2"/><rect x="916" y="452" width="70" height="134" rx="2"/><rect x="998" y="398" width="61" height="188" rx="2"/><rect x="1071" y="347" width="44" height="239" rx="2"/><rect x="1127" y="335" width="58" height="251" rx="2"/><rect x="1197" y="450" width="45" height="136" rx="2"/><rect x="1254" y="301" width="39" height="285" rx="2"/></g><g fill="url(#near)" opacity="1"><rect x="-20" y="565" width="83" height="179" rx="2"/><rect x="24" y="577" width="5" height="7" rx="1" fill="#ffe9b0" opacity=".75"/><rect x="0" y="593" width="5" height="7" rx="1" fill="#ffe9b0" opacity=".75"/><rect x="24" y="593" width="5" height="7" rx="1" fill="#ffe9b0" opacity=".75"/><rect x="48" y="593" width="5" height="7" rx="1" fill="#ffe9b0" opacity=".75"/><rect x="12" y="609" width="5" height="7" rx="1" fill="#ffe9b0" opacity=".75"/><rect x="24" y="609" width="5" height="7" rx="1" fill="#ffe9b0" opacity=".75"/><rect x="24" y="625" width="5" height="7" rx="1" fill="#ffe9b0" opacity=".75"/><rect x="36" y="625" width="5" height="7" rx="1" fill="#ffe9b0" opacity=".75"/><rect x="0" y="641" width="5" height="7" rx="1" fill="#ffe9b0" opacity=".75"/><rect x="36" y="641" width="5" height="7" rx="1" fill="#ffe9b0" opacity=".75"/><rect x="48" y="641" width="5" height="7" rx="1" fill="#ffe9b0" opacity=".75"/><rect x="0" y="657" width="5" height="7" rx="1" fill="#ffe9b0" opacity=".75"/><rect x="12" y="657" width="5" height="7" rx="1" fill="#ffe9b0" opacity=".75"/><rect x="36" y="657" width="5" height="7" rx="1" fill="#ffe9b0" opacity=".75"/><rect x="-12" y="673" width="5" height="7" rx="1" fill="#ffe9b0" opacity=".75"/><rect x="12" y="673" width="5" height="7" rx="1" fill="#ffe9b0" opacity=".75"/><rect x="24" y="673" width="5" height="7" rx="1" fill="#ffe9b0" opacity=".75"/><rect x="36" y="673" width="5" height="7" rx="1" fill="#ffe9b0" opacity=".75"/><rect x="-12" y="689" width="5" height="7" rx="1" fill="#ffe9b0" opacity=".75"/><rect x="0" y="689" width="5" height="7" rx="1" fill="#ffe9b0" opacity=".75"/><rect x="36" y="689" width="5" height="7" rx="1" fill="#ffe9b0" opacity=".75"/><rect x="24" y="705" width="5" height="7" rx="1" fill="#ffe9b0" opacity=".75"/><rect x="36" y="705" width="5" height="7" rx="1" fill="#ffe9b0" opacity=".75"/><rect x="48" y="705" width="5" height="7" rx="1" fill="#ffe9b0" opacity=".75"/><rect x="73" y="463" width="35" height="281" rx="2"/><rect x="93" y="475" width="5" height="7" rx="1" fill="#ffe9b0" opacity=".75"/><rect x="93" y="507" width="5" height="7" rx="1" fill="#ffe9b0" opacity=".75"/><rect x="81" y="523" width="5" height="7" rx="1" fill="#ffe9b0" opacity=".75"/><rect x="93" y="523" width="5" height="7" rx="1" fill="#ffe9b0" opacity=".75"/><rect x="81" y="555" width="5" height="7" rx="1" fill="#ffe9b0" opacity=".75"/><rect x="93" y="555" width="5" height="7" rx="1" fill="#ffe9b0" opacity=".75"/><rect x="93" y="571" width="5" height="7" rx="1" fill="#ffe9b0" opacity=".75"/><rect x="93" y="587" width="5" height="7" rx="1" fill="#ffe9b0" opacity=".75"/><rect x="81" y="603" width="5" height="7" rx="1" fill="#ffe9b0" opacity=".75"/><rect x="93" y="603" width="5" height="7" rx="1" fill="#ffe9b0" opacity=".75"/><rect x="81" y="619" width="5" height="7" rx="1" fill="#ffe9b0" opacity=".75"/><rect x="81" y="635" width="5" height="7" rx="1" fill="#ffe9b0" opacity=".75"/><rect x="93" y="635" width="5" height="7" rx="1" fill="#ffe9b0" opacity=".75"/><rect x="81" y="651" width="5" height="7" rx="1" fill="#ffe9b0" opacity=".75"/><rect x="81" y="667" width="5" height="7" rx="1" fill="#ffe9b0" opacity=".75"/><rect x="93" y="667" width="5" height="7" rx="1" fill="#ffe9b0" opacity=".75"/><rect x="93" y="683" width="5" height="7" rx="1" fill="#ffe9b0" opacity=".75"/><rect x="81" y="715" width="5" height="7" rx="1" fill="#ffe9b0" opacity=".75"/><rect x="93" y="715" width="5" height="7" rx="1" fill="#ffe9b0" opacity=".75"/><rect x="118" y="430" width="66" height="314" rx="2"/><rect x="126" y="442" width="5" height="7" rx="1" fill="#ffe9b0" opacity=".75"/><rect x="138" y="442" width="5" height="7" rx="1" fill="#ffe9b0" opacity=".75"/><rect x="150" y="442" width="5" height="7" rx="1" fill="#ffe9b0" opacity=".75"/><rect x="126" y="458" width="5" height="7" rx="1" fill="#ffe9b0" opacity=".75"/><rect x="138" y="458" width="5" height="7" rx="1" fill="#ffe9b0" opacity=".75"/><rect x="150" y="458" width="5" height="7" rx="1" fill="#ffe9b0" opacity=".75"/><rect x="150" y="474" width="5" height="7" rx="1" fill="#ffe9b0" opacity=".75"/><rect x="162" y="474" width="5" height="7" rx="1" fill="#ffe9b0" opacity=".75"/><rect x="126" y="490" width="5" height="7" rx="1" fill="#ffe9b0" opacity=".75"/><rect x="162" y="490" width="5" height="7" rx="1" fill="#ffe9b0" opacity=".75"/><rect x="138" y="506" width="5" height="7" rx="1" fill="#ffe9b0" opacity=".75"/><rect x="150" y="506" width="5" height="7" rx="1" fill="#ffe9b0" opacity=".75"/><rect x="126" y="522" width="5" height="7" rx="1" fill="#ffe9b0" opacity=".75"/><rect x="138" y="522" width="5" height="7" rx="1" fill="#ffe9b0" opacity=".75"/><rect x="150" y="522" width="5" height="7" rx="1" fill="#ffe9b0" opacity=".75"/><rect x="162" y="522" width="5" height="7" rx="1" fill="#ffe9b0" opacity=".75"/><rect x="126" y="538" width="5" height="7" rx="1" fill="#ffe9b0" opacity=".75"/><rect x="138" y="538" width="5" height="7" rx="1" fill="#ffe9b0" opacity=".75"/><rect x="126" y="554" width="5" height="7" rx="1" fill="#ffe9b0" opacity=".75"/><rect x="150" y="554" width="5" height="7" rx="1" fill="#ffe9b0" opacity=".75"/><rect x="162" y="554" width="5" height="7" rx="1" fill="#ffe9b0" opacity=".75"/><rect x="126" y="570" width="5" height="7" rx="1" fill="#ffe9b0" opacity=".75"/><rect x="150" y="570" width="5" height="7" rx="1" fill="#ffe9b0" opacity=".75"/><rect x="162" y="570" width="5" height="7" rx="1" fill="#ffe9b0" opacity=".75"/><rect x="126" y="586" width="5" height="7" rx="1" fill="#ffe9b0" opacity=".75"/><rect x="150" y="586" width="5" height="7" rx="1" fill="#ffe9b0" opacity=".75"/><rect x="162" y="586" width="5" height="7" rx="1" fill="#ffe9b0" opacity=".75"/><rect x="126" y="602" width="5" height="7" rx="1" fill="#ffe9b0" opacity=".75"/><rect x="126" y="618" width="5" height="7" rx="1" fill="#ffe9b0" opacity=".75"/><rect x="150" y="618" width="5" height="7" rx="1" fill="#ffe9b0" opacity=".75"/><rect x="162" y="618" width="5" height="7" rx="1" fill="#ffe9b0" opacity=".75"/><rect x="126" y="634" width="5" height="7" rx="1" fill="#ffe9b0" opacity=".75"/><rect x="162" y="634" width="5" height="7" rx="1" fill="#ffe9b0" opacity=".75"/><rect x="138" y="650" width="5" height="7" rx="1" fill="#ffe9b0" opacity=".75"/><rect x="138" y="666" width="5" height="7" rx="1" fill="#ffe9b0" opacity=".75"/><rect x="150" y="682" width="5" height="7" rx="1" fill="#ffe9b0" opacity=".75"/><rect x="126" y="698" width="5" height="7" rx="1" fill="#ffe9b0" opacity=".75"/><rect x="162" y="698" width="5" height="7" rx="1" fill="#ffe9b0" opacity=".75"/><rect x="138" y="714" width="5" height="7" rx="1" fill="#ffe9b0" opacity=".75"/><rect x="162" y="714" width="5" height="7" rx="1" fill="#ffe9b0" opacity=".75"/><rect x="194" y="536" width="76" height="208" rx="2"/><rect x="214" y="548" width="5" height="7" rx="1" fill="#ffe9b0" opacity=".75"/><rect x="238" y="548" width="5" height="7" rx="1" fill="#ffe9b0" opacity=".75"/><rect x="250" y="548" width="5" height="7" rx="1" fill="#ffe9b0" opacity=".75"/><rect x="214" y="564" width="5" height="7" rx="1" fill="#ffe9b0" opacity=".75"/><rect x="226" y="564" width="5" height="7" rx="1" fill="#ffe9b0" opacity=".75"/><rect x="238" y="564" width="5" height="7" rx="1" fill="#ffe9b0" opacity=".75"/><rect x="250" y="564" width="5" height="7" rx="1" fill="#ffe9b0" opacity=".75"/><rect x="202" y="580" width="5" height="7" rx="1" fill="#ffe9b0" opacity=".75"/><rect x="214" y="580" width="5" height="7" rx="1" fill="#ffe9b0" opacity=".75"/><rect x="238" y="580" width="5" height="7" rx="1" fill="#ffe9b0" opacity=".75"/><rect x="250" y="580" width="5" height="7" rx="1" fill="#ffe9b0" opacity=".75"/><rect x="202" y="596" width="5" height="7" rx="1" fill="#ffe9b0" opacity=".75"/><rect x="214" y="596" width="5" height="7" rx="1" fill="#ffe9b0" opacity=".75"/><rect x="226" y="596" width="5" height="7" rx="1" fill="#ffe9b0" opacity=".75"/><rect x="202" y="612" width="5" height="7" rx="1" fill="#ffe9b0" opacity=".75"/><rect x="238" y="612" width="5" height="7" rx="1" fill="#ffe9b0" opacity=".75"/><rect x="214" y="628" width="5" height="7" rx="1" fill="#ffe9b0" opacity=".75"/><rect x="226" y="628" width="5" height="7" rx="1" fill="#ffe9b0" opacity=".75"/><rect x="238" y="628" width="5" height="7" rx="1" fill="#ffe9b0" opacity=".75"/><rect x="202" y="644" width="5" height="7" rx="1" fill="#ffe9b0" opacity=".75"/><rect x="226" y="644" width="5" height="7" rx="1" fill="#ffe9b0" opacity=".75"/><rect x="238" y="644" width="5" height="7" rx="1" fill="#ffe9b0" opacity=".75"/><rect x="250" y="644" width="5" height="7" rx="1" fill="#ffe9b0" opacity=".75"/><rect x="214" y="660" width="5" height="7" rx="1" fill="#ffe9b0" opacity=".75"/><rect x="226" y="660" width="5" height="7" rx="1" fill="#ffe9b0" opacity=".75"/><rect x="214" y="676" width="5" height="7" rx="1" fill="#ffe9b0" opacity=".75"/><rect x="226" y="676" width="5" height="7" rx="1" fill="#ffe9b0" opacity=".75"/><rect x="250" y="676" width="5" height="7" rx="1" fill="#ffe9b0" opacity=".75"/><rect x="214" y="692" width="5" height="7" rx="1" fill="#ffe9b0" opacity=".75"/><rect x="226" y="692" width="5" height="7" rx="1" fill="#ffe9b0" opacity=".75"/><rect x="238" y="692" width="5" height="7" rx="1" fill="#ffe9b0" opacity=".75"/><rect x="250" y="692" width="5" height="7" rx="1" fill="#ffe9b0" opacity=".75"/><rect x="202" y="708" width="5" height="7" rx="1" fill="#ffe9b0" opacity=".75"/><rect x="226" y="708" width="5" height="7" rx="1" fill="#ffe9b0" opacity=".75"/><rect x="280" y="404" width="35" height="340" rx="2"/><rect x="300" y="416" width="5" height="7" rx="1" fill="#ffe9b0" opacity=".75"/><rect x="288" y="432" width="5" height="7" rx="1" fill="#ffe9b0" opacity=".75"/><rect x="288" y="464" width="5" height="7" rx="1" fill="#ffe9b0" opacity=".75"/><rect x="300" y="464" width="5" height="7" rx="1" fill="#ffe9b0" opacity=".75"/><rect x="288" y="480" width="5" height="7" rx="1" fill="#ffe9b0" opacity=".75"/><rect x="288" y="496" width="5" height="7" rx="1" fill="#ffe9b0" opacity=".75"/><rect x="300" y="496" width="5" height="7" rx="1" fill="#ffe9b0" opacity=".75"/><rect x="300" y="528" width="5" height="7" rx="1" fill="#ffe9b0" opacity=".75"/><rect x="288" y="544" width="5" height="7" rx="1" fill="#ffe9b0" opacity=".75"/><rect x="300" y="544" width="5" height="7" rx="1" fill="#ffe9b0" opacity=".75"/><rect x="288" y="560" width="5" height="7" rx="1" fill="#ffe9b0" opacity=".75"/><rect x="300" y="560" width="5" height="7" rx="1" fill="#ffe9b0" opacity=".75"/><rect x="288" y="576" width="5" height="7" rx="1" fill="#ffe9b0" opacity=".75"/><rect x="300" y="576" width="5" height="7" rx="1" fill="#ffe9b0" opacity=".75"/><rect x="300" y="592" width="5" height="7" rx="1" fill="#ffe9b0" opacity=".75"/><rect x="300" y="624" width="5" height="7" rx="1" fill="#ffe9b0" opacity=".75"/><rect x="300" y="640" width="5" height="7" rx="1" fill="#ffe9b0" opacity=".75"/><rect x="288" y="672" width="5" height="7" rx="1" fill="#ffe9b0" opacity=".75"/><rect x="300" y="672" width="5" height="7" rx="1" fill="#ffe9b0" opacity=".75"/><rect x="288" y="688" width="5" height="7" rx="1" fill="#ffe9b0" opacity=".75"/><rect x="300" y="688" width="5" height="7" rx="1" fill="#ffe9b0" opacity=".75"/><rect x="288" y="704" width="5" height="7" rx="1" fill="#ffe9b0" opacity=".75"/><rect x="300" y="704" width="5" height="7" rx="1" fill="#ffe9b0" opacity=".75"/><rect x="325" y="491" width="42" height="253" rx="2"/><rect x="333" y="503" width="5" height="7" rx="1" fill="#ffe9b0" opacity=".75"/><rect x="333" y="519" width="5" height="7" rx="1" fill="#ffe9b0" opacity=".75"/><rect x="345" y="519" width="5" height="7" rx="1" fill="#ffe9b0" opacity=".75"/><rect x="333" y="535" width="5" height="7" rx="1" fill="#ffe9b0" opacity=".75"/><rect x="345" y="535" width="5" height="7" rx="1" fill="#ffe9b0" opacity=".75"/><rect x="333" y="583" width="5" height="7" rx="1" fill="#ffe9b0" opacity=".75"/><rect x="345" y="599" width="5" height="7" rx="1" fill="#ffe9b0" opacity=".75"/><rect x="345" y="615" width="5" height="7" rx="1" fill="#ffe9b0" opacity=".75"/><rect x="345" y="631" width="5" height="7" rx="1" fill="#ffe9b0" opacity=".75"/><rect x="333" y="647" width="5" height="7" rx="1" fill="#ffe9b0" opacity=".75"/><rect x="333" y="679" width="5" height="7" rx="1" fill="#ffe9b0" opacity=".75"/><rect x="333" y="711" width="5" height="7" rx="1" fill="#ffe9b0" opacity=".75"/><rect x="377" y="513" width="75" height="231" rx="2"/><rect x="397" y="525" width="5" height="7" rx="1" fill="#ffe9b0" opacity=".75"/><rect x="409" y="525" width="5" height="7" rx="1" fill="#ffe9b0" opacity=".75"/><rect x="385" y="541" width="5" height="7" rx="1" fill="#ffe9b0" opacity=".75"/><rect x="409" y="541" width="5" height="7" rx="1" fill="#ffe9b0" opacity=".75"/><rect x="397" y="557" width="5" height="7" rx="1" fill="#ffe9b0" opacity=".75"/><rect x="409" y="557" width="5" height="7" rx="1" fill="#ffe9b0" opacity=".75"/><rect x="433" y="557" width="5" height="7" rx="1" fill="#ffe9b0" opacity=".75"/><rect x="385" y="573" width="5" height="7" rx="1" fill="#ffe9b0" opacity=".75"/><rect x="409" y="573" width="5" height="7" rx="1" fill="#ffe9b0" opacity=".75"/><rect x="397" y="589" width="5" height="7" rx="1" fill="#ffe9b0" opacity=".75"/><rect x="409" y="589" width="5" height="7" rx="1" fill="#ffe9b0" opacity=".75"/><rect x="421" y="589" width="5" height="7" rx="1" fill="#ffe9b0" opacity=".75"/><rect x="433" y="589" width="5" height="7" rx="1" fill="#ffe9b0" opacity=".75"/><rect x="385" y="605" width="5" height="7" rx="1" fill="#ffe9b0" opacity=".75"/><rect x="433" y="605" width="5" height="7" rx="1" fill="#ffe9b0" opacity=".75"/><rect x="397" y="621" width="5" height="7" rx="1" fill="#ffe9b0" opacity=".75"/><rect x="421" y="621" width="5" height="7" rx="1" fill="#ffe9b0" opacity=".75"/><rect x="385" y="637" width="5" height="7" rx="1" fill="#ffe9b0" opacity=".75"/><rect x="397" y="637" width="5" height="7" rx="1" fill="#ffe9b0" opacity=".75"/><rect x="409" y="637" width="5" height="7" rx="1" fill="#ffe9b0" opacity=".75"/><rect x="433" y="637" width="5" height="7" rx="1" fill="#ffe9b0" opacity=".75"/><rect x="397" y="653" width="5" height="7" rx="1" fill="#ffe9b0" opacity=".75"/><rect x="433" y="653" width="5" height="7" rx="1" fill="#ffe9b0" opacity=".75"/><rect x="397" y="669" width="5" height="7" rx="1" fill="#ffe9b0" opacity=".75"/><rect x="409" y="669" width="5" height="7" rx="1" fill="#ffe9b0" opacity=".75"/><rect x="433" y="669" width="5" height="7" rx="1" fill="#ffe9b0" opacity=".75"/><rect x="397" y="685" width="5" height="7" rx="1" fill="#ffe9b0" opacity=".75"/><rect x="409" y="685" width="5" height="7" rx="1" fill="#ffe9b0" opacity=".75"/><rect x="385" y="701" width="5" height="7" rx="1" fill="#ffe9b0" opacity=".75"/><rect x="409" y="701" width="5" height="7" rx="1" fill="#ffe9b0" opacity=".75"/><rect x="421" y="701" width="5" height="7" rx="1" fill="#ffe9b0" opacity=".75"/><rect x="385" y="717" width="5" height="7" rx="1" fill="#ffe9b0" opacity=".75"/><rect x="397" y="717" width="5" height="7" rx="1" fill="#ffe9b0" opacity=".75"/><rect x="409" y="717" width="5" height="7" rx="1" fill="#ffe9b0" opacity=".75"/><rect x="462" y="429" width="78" height="315" rx="2"/><rect x="482" y="441" width="5" height="7" rx="1" fill="#ffe9b0" opacity=".75"/><rect x="506" y="441" width="5" height="7" rx="1" fill="#ffe9b0" opacity=".75"/><rect x="470" y="457" width="5" height="7" rx="1" fill="#ffe9b0" opacity=".75"/><rect x="506" y="457" width="5" height="7" rx="1" fill="#ffe9b0" opacity=".75"/><rect x="518" y="457" width="5" height="7" rx="1" fill="#ffe9b0" opacity=".75"/><rect x="470" y="473" width="5" height="7" rx="1" fill="#ffe9b0" opacity=".75"/><rect x="506" y="473" width="5" height="7" rx="1" fill="#ffe9b0" opacity=".75"/><rect x="470" y="489" width="5" height="7" rx="1" fill="#ffe9b0" opacity=".75"/><rect x="518" y="489" width="5" height="7" rx="1" fill="#ffe9b0" opacity=".75"/><rect x="470" y="505" width="5" height="7" rx="1" fill="#ffe9b0" opacity=".75"/><rect x="482" y="505" width="5" height="7" rx="1" fill="#ffe9b0" opacity=".75"/><rect x="494" y="505" width="5" height="7" rx="1" fill="#ffe9b0" opacity=".75"/><rect x="518" y="505" width="5" height="7" rx="1" fill="#ffe9b0" opacity=".75"/><rect x="470" y="521" width="5" height="7" rx="1" fill="#ffe9b0" opacity=".75"/><rect x="482" y="521" width="5" height="7" rx="1" fill="#ffe9b0" opacity=".75"/><rect x="506" y="521" width="5" height="7" rx="1" fill="#ffe9b0" opacity=".75"/><rect x="470" y="537" width="5" height="7" rx="1" fill="#ffe9b0" opacity=".75"/><rect x="482" y="537" width="5" height="7" rx="1" fill="#ffe9b0" opacity=".75"/><rect x="494" y="537" width="5" height="7" rx="1" fill="#ffe9b0" opacity=".75"/><rect x="506" y="537" width="5" height="7" rx="1" fill="#ffe9b0" opacity=".75"/><rect x="518" y="537" width="5" height="7" rx="1" fill="#ffe9b0" opacity=".75"/><rect x="470" y="553" width="5" height="7" rx="1" fill="#ffe9b0" opacity=".75"/><rect x="506" y="553" width="5" height="7" rx="1" fill="#ffe9b0" opacity=".75"/><rect x="470" y="569" width="5" height="7" rx="1" fill="#ffe9b0" opacity=".75"/><rect x="506" y="569" width="5" height="7" rx="1" fill="#ffe9b0" opacity=".75"/><rect x="518" y="569" width="5" height="7" rx="1" fill="#ffe9b0" opacity=".75"/><rect x="470" y="585" width="5" height="7" rx="1" fill="#ffe9b0" opacity=".75"/><rect x="482" y="585" width="5" height="7" rx="1" fill="#ffe9b0" opacity=".75"/><rect x="506" y="585" width="5" height="7" rx="1" fill="#ffe9b0" opacity=".75"/><rect x="518" y="585" width="5" height="7" rx="1" fill="#ffe9b0" opacity=".75"/><rect x="470" y="601" width="5" height="7" rx="1" fill="#ffe9b0" opacity=".75"/><rect x="482" y="601" width="5" height="7" rx="1" fill="#ffe9b0" opacity=".75"/><rect x="506" y="601" width="5" height="7" rx="1" fill="#ffe9b0" opacity=".75"/><rect x="518" y="601" width="5" height="7" rx="1" fill="#ffe9b0" opacity=".75"/><rect x="482" y="617" width="5" height="7" rx="1" fill="#ffe9b0" opacity=".75"/><rect x="506" y="617" width="5" height="7" rx="1" fill="#ffe9b0" opacity=".75"/><rect x="518" y="617" width="5" height="7" rx="1" fill="#ffe9b0" opacity=".75"/><rect x="482" y="633" width="5" height="7" rx="1" fill="#ffe9b0" opacity=".75"/><rect x="494" y="633" width="5" height="7" rx="1" fill="#ffe9b0" opacity=".75"/><rect x="506" y="633" width="5" height="7" rx="1" fill="#ffe9b0" opacity=".75"/><rect x="506" y="649" width="5" height="7" rx="1" fill="#ffe9b0" opacity=".75"/><rect x="470" y="665" width="5" height="7" rx="1" fill="#ffe9b0" opacity=".75"/><rect x="482" y="665" width="5" height="7" rx="1" fill="#ffe9b0" opacity=".75"/><rect x="518" y="665" width="5" height="7" rx="1" fill="#ffe9b0" opacity=".75"/><rect x="482" y="681" width="5" height="7" rx="1" fill="#ffe9b0" opacity=".75"/><rect x="494" y="681" width="5" height="7" rx="1" fill="#ffe9b0" opacity=".75"/><rect x="506" y="681" width="5" height="7" rx="1" fill="#ffe9b0" opacity=".75"/><rect x="482" y="697" width="5" height="7" rx="1" fill="#ffe9b0" opacity=".75"/><rect x="518" y="697" width="5" height="7" rx="1" fill="#ffe9b0" opacity=".75"/><rect x="482" y="713" width="5" height="7" rx="1" fill="#ffe9b0" opacity=".75"/><rect x="494" y="713" width="5" height="7" rx="1" fill="#ffe9b0" opacity=".75"/><rect x="506" y="713" width="5" height="7" rx="1" fill="#ffe9b0" opacity=".75"/><rect x="518" y="713" width="5" height="7" rx="1" fill="#ffe9b0" opacity=".75"/><rect x="550" y="435" width="52" height="309" rx="2"/><rect x="558" y="447" width="5" height="7" rx="1" fill="#ffe9b0" opacity=".75"/><rect x="570" y="447" width="5" height="7" rx="1" fill="#ffe9b0" opacity=".75"/><rect x="558" y="463" width="5" height="7" rx="1" fill="#ffe9b0" opacity=".75"/><rect x="570" y="463" width="5" height="7" rx="1" fill="#ffe9b0" opacity=".75"/><rect x="582" y="463" width="5" height="7" rx="1" fill="#ffe9b0" opacity=".75"/><rect x="558" y="479" width="5" height="7" rx="1" fill="#ffe9b0" opacity=".75"/><rect x="570" y="479" width="5" height="7" rx="1" fill="#ffe9b0" opacity=".75"/><rect x="582" y="479" width="5" height="7" rx="1" fill="#ffe9b0" opacity=".75"/><rect x="558" y="495" width="5" height="7" rx="1" fill="#ffe9b0" opacity=".75"/><rect x="570" y="511" width="5" height="7" rx="1" fill="#ffe9b0" opacity=".75"/><rect x="582" y="511" width="5" height="7" rx="1" fill="#ffe9b0" opacity=".75"/><rect x="558" y="527" width="5" height="7" rx="1" fill="#ffe9b0" opacity=".75"/><rect x="570" y="527" width="5" height="7" rx="1" fill="#ffe9b0" opacity=".75"/><rect x="582" y="527" width="5" height="7" rx="1" fill="#ffe9b0" opacity=".75"/><rect x="582" y="543" width="5" height="7" rx="1" fill="#ffe9b0" opacity=".75"/><rect x="558" y="559" width="5" height="7" rx="1" fill="#ffe9b0" opacity=".75"/><rect x="582" y="559" width="5" height="7" rx="1" fill="#ffe9b0" opacity=".75"/><rect x="582" y="575" width="5" height="7" rx="1" fill="#ffe9b0" opacity=".75"/><rect x="558" y="591" width="5" height="7" rx="1" fill="#ffe9b0" opacity=".75"/><rect x="570" y="591" width="5" height="7" rx="1" fill="#ffe9b0" opacity=".75"/><rect x="582" y="591" width="5" height="7" rx="1" fill="#ffe9b0" opacity=".75"/><rect x="558" y="607" width="5" height="7" rx="1" fill="#ffe9b0" opacity=".75"/><rect x="570" y="607" width="5" height="7" rx="1" fill="#ffe9b0" opacity=".75"/><rect x="582" y="623" width="5" height="7" rx="1" fill="#ffe9b0" opacity=".75"/><rect x="558" y="639" width="5" height="7" rx="1" fill="#ffe9b0" opacity=".75"/><rect x="570" y="639" width="5" height="7" rx="1" fill="#ffe9b0" opacity=".75"/><rect x="570" y="655" width="5" height="7" rx="1" fill="#ffe9b0" opacity=".75"/><rect x="582" y="655" width="5" height="7" rx="1" fill="#ffe9b0" opacity=".75"/><rect x="558" y="671" width="5" height="7" rx="1" fill="#ffe9b0" opacity=".75"/><rect x="558" y="687" width="5" height="7" rx="1" fill="#ffe9b0" opacity=".75"/><rect x="558" y="703" width="5" height="7" rx="1" fill="#ffe9b0" opacity=".75"/><rect x="582" y="703" width="5" height="7" rx="1" fill="#ffe9b0" opacity=".75"/><rect x="570" y="719" width="5" height="7" rx="1" fill="#ffe9b0" opacity=".75"/><rect x="582" y="719" width="5" height="7" rx="1" fill="#ffe9b0" opacity=".75"/><rect x="612" y="542" width="80" height="202" rx="2"/><rect x="620" y="554" width="5" height="7" rx="1" fill="#ffe9b0" opacity=".75"/><rect x="632" y="554" width="5" height="7" rx="1" fill="#ffe9b0" opacity=".75"/><rect x="644" y="554" width="5" height="7" rx="1" fill="#ffe9b0" opacity=".75"/><rect x="668" y="554" width="5" height="7" rx="1" fill="#ffe9b0" opacity=".75"/><rect x="632" y="570" width="5" height="7" rx="1" fill="#ffe9b0" opacity=".75"/><rect x="656" y="570" width="5" height="7" rx="1" fill="#ffe9b0" opacity=".75"/><rect x="632" y="586" width="5" height="7" rx="1" fill="#ffe9b0" opacity=".75"/><rect x="644" y="586" width="5" height="7" rx="1" fill="#ffe9b0" opacity=".75"/><rect x="656" y="586" width="5" height="7" rx="1" fill="#ffe9b0" opacity=".75"/><rect x="668" y="586" width="5" height="7" rx="1" fill="#ffe9b0" opacity=".75"/><rect x="680" y="586" width="5" height="7" rx="1" fill="#ffe9b0" opacity=".75"/><rect x="656" y="602" width="5" height="7" rx="1" fill="#ffe9b0" opacity=".75"/><rect x="668" y="602" width="5" height="7" rx="1" fill="#ffe9b0" opacity=".75"/><rect x="620" y="618" width="5" height="7" rx="1" fill="#ffe9b0" opacity=".75"/><rect x="680" y="618" width="5" height="7" rx="1" fill="#ffe9b0" opacity=".75"/><rect x="620" y="634" width="5" height="7" rx="1" fill="#ffe9b0" opacity=".75"/><rect x="644" y="634" width="5" height="7" rx="1" fill="#ffe9b0" opacity=".75"/><rect x="656" y="634" width="5" height="7" rx="1" fill="#ffe9b0" opacity=".75"/><rect x="668" y="634" width="5" height="7" rx="1" fill="#ffe9b0" opacity=".75"/><rect x="620" y="650" width="5" height="7" rx="1" fill="#ffe9b0" opacity=".75"/><rect x="632" y="650" width="5" height="7" rx="1" fill="#ffe9b0" opacity=".75"/><rect x="644" y="650" width="5" height="7" rx="1" fill="#ffe9b0" opacity=".75"/><rect x="656" y="650" width="5" height="7" rx="1" fill="#ffe9b0" opacity=".75"/><rect x="668" y="650" width="5" height="7" rx="1" fill="#ffe9b0" opacity=".75"/><rect x="680" y="650" width="5" height="7" rx="1" fill="#ffe9b0" opacity=".75"/><rect x="680" y="666" width="5" height="7" rx="1" fill="#ffe9b0" opacity=".75"/><rect x="632" y="682" width="5" height="7" rx="1" fill="#ffe9b0" opacity=".75"/><rect x="656" y="682" width="5" height="7" rx="1" fill="#ffe9b0" opacity=".75"/><rect x="680" y="682" width="5" height="7" rx="1" fill="#ffe9b0" opacity=".75"/><rect x="620" y="698" width="5" height="7" rx="1" fill="#ffe9b0" opacity=".75"/><rect x="632" y="698" width="5" height="7" rx="1" fill="#ffe9b0" opacity=".75"/><rect x="656" y="698" width="5" height="7" rx="1" fill="#ffe9b0" opacity=".75"/><rect x="668" y="698" width="5" height="7" rx="1" fill="#ffe9b0" opacity=".75"/><rect x="620" y="714" width="5" height="7" rx="1" fill="#ffe9b0" opacity=".75"/><rect x="656" y="714" width="5" height="7" rx="1" fill="#ffe9b0" opacity=".75"/><rect x="702" y="460" width="80" height="284" rx="2"/><rect x="758" y="472" width="5" height="7" rx="1" fill="#ffe9b0" opacity=".75"/><rect x="710" y="488" width="5" height="7" rx="1" fill="#ffe9b0" opacity=".75"/><rect x="722" y="488" width="5" height="7" rx="1" fill="#ffe9b0" opacity=".75"/><rect x="758" y="488" width="5" height="7" rx="1" fill="#ffe9b0" opacity=".75"/><rect x="734" y="504" width="5" height="7" rx="1" fill="#ffe9b0" opacity=".75"/><rect x="746" y="504" width="5" height="7" rx="1" fill="#ffe9b0" opacity=".75"/><rect x="758" y="504" width="5" height="7" rx="1" fill="#ffe9b0" opacity=".75"/><rect x="770" y="504" width="5" height="7" rx="1" fill="#ffe9b0" opacity=".75"/><rect x="722" y="520" width="5" height="7" rx="1" fill="#ffe9b0" opacity=".75"/><rect x="758" y="520" width="5" height="7" rx="1" fill="#ffe9b0" opacity=".75"/><rect x="770" y="520" width="5" height="7" rx="1" fill="#ffe9b0" opacity=".75"/><rect x="746" y="536" width="5" height="7" rx="1" fill="#ffe9b0" opacity=".75"/><rect x="758" y="536" width="5" height="7" rx="1" fill="#ffe9b0" opacity=".75"/><rect x="710" y="552" width="5" height="7" rx="1" fill="#ffe9b0" opacity=".75"/><rect x="722" y="552" width="5" height="7" rx="1" fill="#ffe9b0" opacity=".75"/><rect x="734" y="552" width="5" height="7" rx="1" fill="#ffe9b0" opacity=".75"/><rect x="770" y="552" width="5" height="7" rx="1" fill="#ffe9b0" opacity=".75"/><rect x="710" y="568" width="5" height="7" rx="1" fill="#ffe9b0" opacity=".75"/><rect x="758" y="568" width="5" height="7" rx="1" fill="#ffe9b0" opacity=".75"/><rect x="770" y="568" width="5" height="7" rx="1" fill="#ffe9b0" opacity=".75"/><rect x="770" y="584" width="5" height="7" rx="1" fill="#ffe9b0" opacity=".75"/><rect x="734" y="600" width="5" height="7" rx="1" fill="#ffe9b0" opacity=".75"/><rect x="770" y="600" width="5" height="7" rx="1" fill="#ffe9b0" opacity=".75"/><rect x="734" y="616" width="5" height="7" rx="1" fill="#ffe9b0" opacity=".75"/><rect x="758" y="616" width="5" height="7" rx="1" fill="#ffe9b0" opacity=".75"/><rect x="722" y="632" width="5" height="7" rx="1" fill="#ffe9b0" opacity=".75"/><rect x="734" y="632" width="5" height="7" rx="1" fill="#ffe9b0" opacity=".75"/><rect x="746" y="632" width="5" height="7" rx="1" fill="#ffe9b0" opacity=".75"/><rect x="758" y="632" width="5" height="7" rx="1" fill="#ffe9b0" opacity=".75"/><rect x="746" y="648" width="5" height="7" rx="1" fill="#ffe9b0" opacity=".75"/><rect x="746" y="664" width="5" height="7" rx="1" fill="#ffe9b0" opacity=".75"/><rect x="770" y="664" width="5" height="7" rx="1" fill="#ffe9b0" opacity=".75"/><rect x="734" y="680" width="5" height="7" rx="1" fill="#ffe9b0" opacity=".75"/><rect x="758" y="680" width="5" height="7" rx="1" fill="#ffe9b0" opacity=".75"/><rect x="770" y="680" width="5" height="7" rx="1" fill="#ffe9b0" opacity=".75"/><rect x="722" y="696" width="5" height="7" rx="1" fill="#ffe9b0" opacity=".75"/><rect x="722" y="712" width="5" height="7" rx="1" fill="#ffe9b0" opacity=".75"/><rect x="746" y="712" width="5" height="7" rx="1" fill="#ffe9b0" opacity=".75"/><rect x="770" y="712" width="5" height="7" rx="1" fill="#ffe9b0" opacity=".75"/><rect x="792" y="520" width="73" height="224" rx="2"/><rect x="824" y="532" width="5" height="7" rx="1" fill="#ffe9b0" opacity=".75"/><rect x="848" y="532" width="5" height="7" rx="1" fill="#ffe9b0" opacity=".75"/><rect x="824" y="548" width="5" height="7" rx="1" fill="#ffe9b0" opacity=".75"/><rect x="812" y="564" width="5" height="7" rx="1" fill="#ffe9b0" opacity=".75"/><rect x="824" y="564" width="5" height="7" rx="1" fill="#ffe9b0" opacity=".75"/><rect x="848" y="564" width="5" height="7" rx="1" fill="#ffe9b0" opacity=".75"/><rect x="800" y="580" width="5" height="7" rx="1" fill="#ffe9b0" opacity=".75"/><rect x="812" y="580" width="5" height="7" rx="1" fill="#ffe9b0" opacity=".75"/><rect x="824" y="580" width="5" height="7" rx="1" fill="#ffe9b0" opacity=".75"/><rect x="848" y="580" width="5" height="7" rx="1" fill="#ffe9b0" opacity=".75"/><rect x="800" y="596" width="5" height="7" rx="1" fill="#ffe9b0" opacity=".75"/><rect x="812" y="596" width="5" height="7" rx="1" fill="#ffe9b0" opacity=".75"/><rect x="848" y="596" width="5" height="7" rx="1" fill="#ffe9b0" opacity=".75"/><rect x="800" y="612" width="5" height="7" rx="1" fill="#ffe9b0" opacity=".75"/><rect x="812" y="612" width="5" height="7" rx="1" fill="#ffe9b0" opacity=".75"/><rect x="824" y="612" width="5" height="7" rx="1" fill="#ffe9b0" opacity=".75"/><rect x="848" y="612" width="5" height="7" rx="1" fill="#ffe9b0" opacity=".75"/><rect x="812" y="628" width="5" height="7" rx="1" fill="#ffe9b0" opacity=".75"/><rect x="824" y="628" width="5" height="7" rx="1" fill="#ffe9b0" opacity=".75"/><rect x="836" y="628" width="5" height="7" rx="1" fill="#ffe9b0" opacity=".75"/><rect x="848" y="628" width="5" height="7" rx="1" fill="#ffe9b0" opacity=".75"/><rect x="800" y="644" width="5" height="7" rx="1" fill="#ffe9b0" opacity=".75"/><rect x="812" y="644" width="5" height="7" rx="1" fill="#ffe9b0" opacity=".75"/><rect x="824" y="644" width="5" height="7" rx="1" fill="#ffe9b0" opacity=".75"/><rect x="800" y="660" width="5" height="7" rx="1" fill="#ffe9b0" opacity=".75"/><rect x="812" y="660" width="5" height="7" rx="1" fill="#ffe9b0" opacity=".75"/><rect x="836" y="660" width="5" height="7" rx="1" fill="#ffe9b0" opacity=".75"/><rect x="848" y="660" width="5" height="7" rx="1" fill="#ffe9b0" opacity=".75"/><rect x="812" y="676" width="5" height="7" rx="1" fill="#ffe9b0" opacity=".75"/><rect x="824" y="676" width="5" height="7" rx="1" fill="#ffe9b0" opacity=".75"/><rect x="836" y="676" width="5" height="7" rx="1" fill="#ffe9b0" opacity=".75"/><rect x="848" y="676" width="5" height="7" rx="1" fill="#ffe9b0" opacity=".75"/><rect x="812" y="708" width="5" height="7" rx="1" fill="#ffe9b0" opacity=".75"/><rect x="824" y="708" width="5" height="7" rx="1" fill="#ffe9b0" opacity=".75"/><rect x="836" y="708" width="5" height="7" rx="1" fill="#ffe9b0" opacity=".75"/><rect x="848" y="708" width="5" height="7" rx="1" fill="#ffe9b0" opacity=".75"/><rect x="875" y="409" width="35" height="335" rx="2"/><rect x="883" y="437" width="5" height="7" rx="1" fill="#ffe9b0" opacity=".75"/><rect x="895" y="437" width="5" height="7" rx="1" fill="#ffe9b0" opacity=".75"/><rect x="895" y="453" width="5" height="7" rx="1" fill="#ffe9b0" opacity=".75"/><rect x="883" y="469" width="5" height="7" rx="1" fill="#ffe9b0" opacity=".75"/><rect x="895" y="469" width="5" height="7" rx="1" fill="#ffe9b0" opacity=".75"/><rect x="883" y="485" width="5" height="7" rx="1" fill="#ffe9b0" opacity=".75"/><rect x="895" y="485" width="5" height="7" rx="1" fill="#ffe9b0" opacity=".75"/><rect x="883" y="517" width="5" height="7" rx="1" fill="#ffe9b0" opacity=".75"/><rect x="883" y="549" width="5" height="7" rx="1" fill="#ffe9b0" opacity=".75"/><rect x="895" y="549" width="5" height="7" rx="1" fill="#ffe9b0" opacity=".75"/><rect x="883" y="565" width="5" height="7" rx="1" fill="#ffe9b0" opacity=".75"/><rect x="895" y="581" width="5" height="7" rx="1" fill="#ffe9b0" opacity=".75"/><rect x="883" y="613" width="5" height="7" rx="1" fill="#ffe9b0" opacity=".75"/><rect x="883" y="629" width="5" height="7" rx="1" fill="#ffe9b0" opacity=".75"/><rect x="895" y="629" width="5" height="7" rx="1" fill="#ffe9b0" opacity=".75"/><rect x="883" y="645" width="5" height="7" rx="1" fill="#ffe9b0" opacity=".75"/><rect x="895" y="645" width="5" height="7" rx="1" fill="#ffe9b0" opacity=".75"/><rect x="883" y="661" width="5" height="7" rx="1" fill="#ffe9b0" opacity=".75"/><rect x="883" y="677" width="5" height="7" rx="1" fill="#ffe9b0" opacity=".75"/><rect x="895" y="693" width="5" height="7" rx="1" fill="#ffe9b0" opacity=".75"/><rect x="920" y="492" width="51" height="252" rx="2"/><rect x="940" y="504" width="5" height="7" rx="1" fill="#ffe9b0" opacity=".75"/><rect x="940" y="520" width="5" height="7" rx="1" fill="#ffe9b0" opacity=".75"/><rect x="928" y="536" width="5" height="7" rx="1" fill="#ffe9b0" opacity=".75"/><rect x="940" y="536" width="5" height="7" rx="1" fill="#ffe9b0" opacity=".75"/><rect x="952" y="536" width="5" height="7" rx="1" fill="#ffe9b0" opacity=".75"/><rect x="940" y="552" width="5" height="7" rx="1" fill="#ffe9b0" opacity=".75"/><rect x="952" y="552" width="5" height="7" rx="1" fill="#ffe9b0" opacity=".75"/><rect x="928" y="568" width="5" height="7" rx="1" fill="#ffe9b0" opacity=".75"/><rect x="940" y="568" width="5" height="7" rx="1" fill="#ffe9b0" opacity=".75"/><rect x="952" y="568" width="5" height="7" rx="1" fill="#ffe9b0" opacity=".75"/><rect x="940" y="584" width="5" height="7" rx="1" fill="#ffe9b0" opacity=".75"/><rect x="928" y="616" width="5" height="7" rx="1" fill="#ffe9b0" opacity=".75"/><rect x="952" y="616" width="5" height="7" rx="1" fill="#ffe9b0" opacity=".75"/><rect x="928" y="648" width="5" height="7" rx="1" fill="#ffe9b0" opacity=".75"/><rect x="940" y="648" width="5" height="7" rx="1" fill="#ffe9b0" opacity=".75"/><rect x="952" y="648" width="5" height="7" rx="1" fill="#ffe9b0" opacity=".75"/><rect x="928" y="664" width="5" height="7" rx="1" fill="#ffe9b0" opacity=".75"/><rect x="940" y="664" width="5" height="7" rx="1" fill="#ffe9b0" opacity=".75"/><rect x="952" y="664" width="5" height="7" rx="1" fill="#ffe9b0" opacity=".75"/><rect x="940" y="680" width="5" height="7" rx="1" fill="#ffe9b0" opacity=".75"/><rect x="952" y="680" width="5" height="7" rx="1" fill="#ffe9b0" opacity=".75"/><rect x="928" y="696" width="5" height="7" rx="1" fill="#ffe9b0" opacity=".75"/><rect x="952" y="696" width="5" height="7" rx="1" fill="#ffe9b0" opacity=".75"/><rect x="928" y="712" width="5" height="7" rx="1" fill="#ffe9b0" opacity=".75"/><rect x="940" y="712" width="5" height="7" rx="1" fill="#ffe9b0" opacity=".75"/><rect x="952" y="712" width="5" height="7" rx="1" fill="#ffe9b0" opacity=".75"/><rect x="981" y="587" width="72" height="157" rx="2"/><rect x="1001" y="599" width="5" height="7" rx="1" fill="#ffe9b0" opacity=".75"/><rect x="1025" y="599" width="5" height="7" rx="1" fill="#ffe9b0" opacity=".75"/><rect x="1037" y="599" width="5" height="7" rx="1" fill="#ffe9b0" opacity=".75"/><rect x="1001" y="615" width="5" height="7" rx="1" fill="#ffe9b0" opacity=".75"/><rect x="1025" y="615" width="5" height="7" rx="1" fill="#ffe9b0" opacity=".75"/><rect x="1037" y="615" width="5" height="7" rx="1" fill="#ffe9b0" opacity=".75"/><rect x="989" y="631" width="5" height="7" rx="1" fill="#ffe9b0" opacity=".75"/><rect x="1001" y="631" width="5" height="7" rx="1" fill="#ffe9b0" opacity=".75"/><rect x="989" y="647" width="5" height="7" rx="1" fill="#ffe9b0" opacity=".75"/><rect x="1001" y="647" width="5" height="7" rx="1" fill="#ffe9b0" opacity=".75"/><rect x="1037" y="647" width="5" height="7" rx="1" fill="#ffe9b0" opacity=".75"/><rect x="989" y="663" width="5" height="7" rx="1" fill="#ffe9b0" opacity=".75"/><rect x="1001" y="663" width="5" height="7" rx="1" fill="#ffe9b0" opacity=".75"/><rect x="1025" y="663" width="5" height="7" rx="1" fill="#ffe9b0" opacity=".75"/><rect x="989" y="679" width="5" height="7" rx="1" fill="#ffe9b0" opacity=".75"/><rect x="1001" y="679" width="5" height="7" rx="1" fill="#ffe9b0" opacity=".75"/><rect x="1001" y="695" width="5" height="7" rx="1" fill="#ffe9b0" opacity=".75"/><rect x="1025" y="695" width="5" height="7" rx="1" fill="#ffe9b0" opacity=".75"/><rect x="1037" y="695" width="5" height="7" rx="1" fill="#ffe9b0" opacity=".75"/><rect x="1013" y="711" width="5" height="7" rx="1" fill="#ffe9b0" opacity=".75"/><rect x="1025" y="711" width="5" height="7" rx="1" fill="#ffe9b0" opacity=".75"/><rect x="1063" y="557" width="51" height="187" rx="2"/><rect x="1071" y="569" width="5" height="7" rx="1" fill="#ffe9b0" opacity=".75"/><rect x="1083" y="569" width="5" height="7" rx="1" fill="#ffe9b0" opacity=".75"/><rect x="1095" y="569" width="5" height="7" rx="1" fill="#ffe9b0" opacity=".75"/><rect x="1083" y="585" width="5" height="7" rx="1" fill="#ffe9b0" opacity=".75"/><rect x="1095" y="585" width="5" height="7" rx="1" fill="#ffe9b0" opacity=".75"/><rect x="1095" y="601" width="5" height="7" rx="1" fill="#ffe9b0" opacity=".75"/><rect x="1095" y="633" width="5" height="7" rx="1" fill="#ffe9b0" opacity=".75"/><rect x="1071" y="649" width="5" height="7" rx="1" fill="#ffe9b0" opacity=".75"/><rect x="1083" y="649" width="5" height="7" rx="1" fill="#ffe9b0" opacity=".75"/><rect x="1095" y="649" width="5" height="7" rx="1" fill="#ffe9b0" opacity=".75"/><rect x="1071" y="665" width="5" height="7" rx="1" fill="#ffe9b0" opacity=".75"/><rect x="1083" y="665" width="5" height="7" rx="1" fill="#ffe9b0" opacity=".75"/><rect x="1095" y="681" width="5" height="7" rx="1" fill="#ffe9b0" opacity=".75"/><rect x="1071" y="697" width="5" height="7" rx="1" fill="#ffe9b0" opacity=".75"/><rect x="1083" y="713" width="5" height="7" rx="1" fill="#ffe9b0" opacity=".75"/><rect x="1095" y="713" width="5" height="7" rx="1" fill="#ffe9b0" opacity=".75"/><rect x="1124" y="535" width="73" height="209" rx="2"/><rect x="1132" y="547" width="5" height="7" rx="1" fill="#ffe9b0" opacity=".75"/><rect x="1144" y="547" width="5" height="7" rx="1" fill="#ffe9b0" opacity=".75"/><rect x="1168" y="547" width="5" height="7" rx="1" fill="#ffe9b0" opacity=".75"/><rect x="1132" y="563" width="5" height="7" rx="1" fill="#ffe9b0" opacity=".75"/><rect x="1144" y="563" width="5" height="7" rx="1" fill="#ffe9b0" opacity=".75"/><rect x="1156" y="563" width="5" height="7" rx="1" fill="#ffe9b0" opacity=".75"/><rect x="1168" y="563" width="5" height="7" rx="1" fill="#ffe9b0" opacity=".75"/><rect x="1132" y="579" width="5" height="7" rx="1" fill="#ffe9b0" opacity=".75"/><rect x="1144" y="579" width="5" height="7" rx="1" fill="#ffe9b0" opacity=".75"/><rect x="1156" y="579" width="5" height="7" rx="1" fill="#ffe9b0" opacity=".75"/><rect x="1168" y="579" width="5" height="7" rx="1" fill="#ffe9b0" opacity=".75"/><rect x="1180" y="579" width="5" height="7" rx="1" fill="#ffe9b0" opacity=".75"/><rect x="1144" y="595" width="5" height="7" rx="1" fill="#ffe9b0" opacity=".75"/><rect x="1156" y="595" width="5" height="7" rx="1" fill="#ffe9b0" opacity=".75"/><rect x="1180" y="595" width="5" height="7" rx="1" fill="#ffe9b0" opacity=".75"/><rect x="1156" y="611" width="5" height="7" rx="1" fill="#ffe9b0" opacity=".75"/><rect x="1168" y="611" width="5" height="7" rx="1" fill="#ffe9b0" opacity=".75"/><rect x="1132" y="627" width="5" height="7" rx="1" fill="#ffe9b0" opacity=".75"/><rect x="1132" y="643" width="5" height="7" rx="1" fill="#ffe9b0" opacity=".75"/><rect x="1144" y="643" width="5" height="7" rx="1" fill="#ffe9b0" opacity=".75"/><rect x="1168" y="643" width="5" height="7" rx="1" fill="#ffe9b0" opacity=".75"/><rect x="1180" y="643" width="5" height="7" rx="1" fill="#ffe9b0" opacity=".75"/><rect x="1168" y="659" width="5" height="7" rx="1" fill="#ffe9b0" opacity=".75"/><rect x="1144" y="675" width="5" height="7" rx="1" fill="#ffe9b0" opacity=".75"/><rect x="1156" y="675" width="5" height="7" rx="1" fill="#ffe9b0" opacity=".75"/><rect x="1168" y="675" width="5" height="7" rx="1" fill="#ffe9b0" opacity=".75"/><rect x="1132" y="691" width="5" height="7" rx="1" fill="#ffe9b0" opacity=".75"/><rect x="1156" y="691" width="5" height="7" rx="1" fill="#ffe9b0" opacity=".75"/><rect x="1168" y="691" width="5" height="7" rx="1" fill="#ffe9b0" opacity=".75"/><rect x="1144" y="707" width="5" height="7" rx="1" fill="#ffe9b0" opacity=".75"/><rect x="1156" y="707" width="5" height="7" rx="1" fill="#ffe9b0" opacity=".75"/><rect x="1180" y="707" width="5" height="7" rx="1" fill="#ffe9b0" opacity=".75"/><rect x="1207" y="407" width="71" height="337" rx="2"/><rect x="1239" y="419" width="5" height="7" rx="1" fill="#ffe9b0" opacity=".75"/><rect x="1227" y="435" width="5" height="7" rx="1" fill="#ffe9b0" opacity=".75"/><rect x="1239" y="435" width="5" height="7" rx="1" fill="#ffe9b0" opacity=".75"/><rect x="1251" y="435" width="5" height="7" rx="1" fill="#ffe9b0" opacity=".75"/><rect x="1263" y="451" width="5" height="7" rx="1" fill="#ffe9b0" opacity=".75"/><rect x="1215" y="467" width="5" height="7" rx="1" fill="#ffe9b0" opacity=".75"/><rect x="1227" y="467" width="5" height="7" rx="1" fill="#ffe9b0" opacity=".75"/><rect x="1239" y="467" width="5" height="7" rx="1" fill="#ffe9b0" opacity=".75"/><rect x="1251" y="467" width="5" height="7" rx="1" fill="#ffe9b0" opacity=".75"/><rect x="1215" y="483" width="5" height="7" rx="1" fill="#ffe9b0" opacity=".75"/><rect x="1227" y="483" width="5" height="7" rx="1" fill="#ffe9b0" opacity=".75"/><rect x="1251" y="483" width="5" height="7" rx="1" fill="#ffe9b0" opacity=".75"/><rect x="1263" y="483" width="5" height="7" rx="1" fill="#ffe9b0" opacity=".75"/><rect x="1239" y="499" width="5" height="7" rx="1" fill="#ffe9b0" opacity=".75"/><rect x="1263" y="499" width="5" height="7" rx="1" fill="#ffe9b0" opacity=".75"/><rect x="1239" y="515" width="5" height="7" rx="1" fill="#ffe9b0" opacity=".75"/><rect x="1251" y="515" width="5" height="7" rx="1" fill="#ffe9b0" opacity=".75"/><rect x="1263" y="515" width="5" height="7" rx="1" fill="#ffe9b0" opacity=".75"/><rect x="1215" y="531" width="5" height="7" rx="1" fill="#ffe9b0" opacity=".75"/><rect x="1227" y="531" width="5" height="7" rx="1" fill="#ffe9b0" opacity=".75"/><rect x="1239" y="531" width="5" height="7" rx="1" fill="#ffe9b0" opacity=".75"/><rect x="1251" y="531" width="5" height="7" rx="1" fill="#ffe9b0" opacity=".75"/><rect x="1215" y="547" width="5" height="7" rx="1" fill="#ffe9b0" opacity=".75"/><rect x="1227" y="547" width="5" height="7" rx="1" fill="#ffe9b0" opacity=".75"/><rect x="1239" y="547" width="5" height="7" rx="1" fill="#ffe9b0" opacity=".75"/><rect x="1215" y="563" width="5" height="7" rx="1" fill="#ffe9b0" opacity=".75"/><rect x="1239" y="563" width="5" height="7" rx="1" fill="#ffe9b0" opacity=".75"/><rect x="1251" y="563" width="5" height="7" rx="1" fill="#ffe9b0" opacity=".75"/><rect x="1215" y="579" width="5" height="7" rx="1" fill="#ffe9b0" opacity=".75"/><rect x="1227" y="579" width="5" height="7" rx="1" fill="#ffe9b0" opacity=".75"/><rect x="1251" y="579" width="5" height="7" rx="1" fill="#ffe9b0" opacity=".75"/><rect x="1263" y="579" width="5" height="7" rx="1" fill="#ffe9b0" opacity=".75"/><rect x="1239" y="595" width="5" height="7" rx="1" fill="#ffe9b0" opacity=".75"/><rect x="1263" y="595" width="5" height="7" rx="1" fill="#ffe9b0" opacity=".75"/><rect x="1227" y="611" width="5" height="7" rx="1" fill="#ffe9b0" opacity=".75"/><rect x="1251" y="611" width="5" height="7" rx="1" fill="#ffe9b0" opacity=".75"/><rect x="1227" y="627" width="5" height="7" rx="1" fill="#ffe9b0" opacity=".75"/><rect x="1239" y="627" width="5" height="7" rx="1" fill="#ffe9b0" opacity=".75"/><rect x="1227" y="643" width="5" height="7" rx="1" fill="#ffe9b0" opacity=".75"/><rect x="1239" y="643" width="5" height="7" rx="1" fill="#ffe9b0" opacity=".75"/><rect x="1251" y="643" width="5" height="7" rx="1" fill="#ffe9b0" opacity=".75"/><rect x="1239" y="659" width="5" height="7" rx="1" fill="#ffe9b0" opacity=".75"/><rect x="1227" y="675" width="5" height="7" rx="1" fill="#ffe9b0" opacity=".75"/><rect x="1215" y="691" width="5" height="7" rx="1" fill="#ffe9b0" opacity=".75"/><rect x="1227" y="691" width="5" height="7" rx="1" fill="#ffe9b0" opacity=".75"/><rect x="1239" y="691" width="5" height="7" rx="1" fill="#ffe9b0" opacity=".75"/><rect x="1263" y="691" width="5" height="7" rx="1" fill="#ffe9b0" opacity=".75"/><rect x="1239" y="707" width="5" height="7" rx="1" fill="#ffe9b0" opacity=".75"/><rect x="1263" y="707" width="5" height="7" rx="1" fill="#ffe9b0" opacity=".75"/><rect x="1288" y="589" width="35" height="155" rx="2"/><rect x="1308" y="601" width="5" height="7" rx="1" fill="#ffe9b0" opacity=".75"/><rect x="1296" y="617" width="5" height="7" rx="1" fill="#ffe9b0" opacity=".75"/><rect x="1308" y="617" width="5" height="7" rx="1" fill="#ffe9b0" opacity=".75"/><rect x="1296" y="633" width="5" height="7" rx="1" fill="#ffe9b0" opacity=".75"/><rect x="1308" y="633" width="5" height="7" rx="1" fill="#ffe9b0" opacity=".75"/><rect x="1296" y="649" width="5" height="7" rx="1" fill="#ffe9b0" opacity=".75"/><rect x="1296" y="665" width="5" height="7" rx="1" fill="#ffe9b0" opacity=".75"/><rect x="1308" y="681" width="5" height="7" rx="1" fill="#ffe9b0" opacity=".75"/><rect x="1296" y="697" width="5" height="7" rx="1" fill="#ffe9b0" opacity=".75"/><rect x="1308" y="697" width="5" height="7" rx="1" fill="#ffe9b0" opacity=".75"/><rect x="1296" y="713" width="5" height="7" rx="1" fill="#ffe9b0" opacity=".75"/></g></svg>